<svg width="119" height="119" viewBox="0 0 119 119" fill="none" xmlns="http://www.w3.org/2000/svg">
<g filter="url(#filter0_i_15915_6891)">
<path fill-rule="evenodd" clip-rule="evenodd" d="M0.174316 35.6086C0.174316 44.7287 3.60295 53.048 9.24156 59.3478C3.60295 65.6477 0.174316 73.967 0.174316 83.0871C0.174316 102.753 16.1168 118.696 35.7829 118.696C44.903 118.696 53.2223 115.267 59.5222 109.628C65.822 115.267 74.1413 118.696 83.2614 118.696C102.927 118.696 118.87 102.753 118.87 83.0871C118.87 73.967 115.441 65.6477 109.803 59.3479C115.441 53.048 118.87 44.7287 118.87 35.6086C118.87 15.9425 102.928 0 83.2615 0C74.1414 0 65.8221 3.42865 59.5222 9.06729C53.2224 3.42865 44.903 0 35.7829 0C16.1168 0 0.174316 15.9425 0.174316 35.6086Z" fill="white"/>
</g>
<g opacity="0.5" filter="url(#filter1_f_15915_6891)">
<path d="M87.4154 65.2805C83.4822 65.2805 80.2937 63.9519 80.2937 62.3131C80.2937 60.6742 83.4822 59.3457 87.4154 59.3457C91.3486 59.3457 94.5371 60.6742 94.5371 62.3131C94.5371 63.9519 91.3486 65.2805 87.4154 65.2805Z" fill="#FF4545"/>
</g>
<g opacity="0.5" filter="url(#filter2_f_15915_6891)">
<path d="M32.8158 65.2805C28.8826 65.2805 25.6941 63.9519 25.6941 62.3131C25.6941 60.6742 28.8826 59.3457 32.8158 59.3457C36.749 59.3457 39.9375 60.6742 39.9375 62.3131C39.9375 63.9519 36.749 65.2805 32.8158 65.2805Z" fill="#FF4545"/>
</g>
<g filter="url(#filter3_i_15915_6891)">
<path d="M49.0485 55.8563C49.0485 57.7843 47.4855 59.3473 45.5574 59.3473C43.6294 59.3473 42.0664 57.7843 42.0664 55.8563C42.0664 53.9282 43.6294 52.3652 45.5574 52.3652C47.4855 52.3652 49.0485 53.9282 49.0485 55.8563Z" fill="black"/>
<path d="M75.8126 55.8563C75.8126 57.7843 74.2496 59.3473 72.3216 59.3473C70.3936 59.3473 68.8306 57.7843 68.8306 55.8563C68.8306 53.9282 70.3936 52.3652 72.3216 52.3652C74.2496 52.3652 75.8126 53.9282 75.8126 55.8563Z" fill="black"/>
</g>
<defs>
<filter id="filter0_i_15915_6891" x="-3.82568" y="-4" width="122.696" height="122.695" filterUnits="userSpaceOnUse" color-interpolation-filters="sRGB">
<feFlood flood-opacity="0" result="BackgroundImageFix"/>
<feBlend mode="normal" in="SourceGraphic" in2="BackgroundImageFix" result="shape"/>
<feColorMatrix in="SourceAlpha" type="matrix" values="0 0 0 0 0 0 0 0 0 0 0 0 0 0 0 0 0 0 127 0" result="hardAlpha"/>
<feOffset dx="-4" dy="-4"/>
<feGaussianBlur stdDeviation="10"/>
<feComposite in2="hardAlpha" operator="arithmetic" k2="-1" k3="1"/>
<feColorMatrix type="matrix" values="0 0 0 0 0 0 0 0 0 0 0 0 0 0 0 0 0 0 0.25 0"/>
<feBlend mode="normal" in2="shape" result="effect1_innerShadow_15915_6891"/>
</filter>
<filter id="filter1_f_15915_6891" x="60.2935" y="39.3457" width="54.2437" height="45.9355" filterUnits="userSpaceOnUse" color-interpolation-filters="sRGB">
<feFlood flood-opacity="0" result="BackgroundImageFix"/>
<feBlend mode="normal" in="SourceGraphic" in2="BackgroundImageFix" result="shape"/>
<feGaussianBlur stdDeviation="10" result="effect1_foregroundBlur_15915_6891"/>
</filter>
<filter id="filter2_f_15915_6891" x="5.69385" y="39.3457" width="54.2437" height="45.9355" filterUnits="userSpaceOnUse" color-interpolation-filters="sRGB">
<feFlood flood-opacity="0" result="BackgroundImageFix"/>
<feBlend mode="normal" in="SourceGraphic" in2="BackgroundImageFix" result="shape"/>
<feGaussianBlur stdDeviation="10" result="effect1_foregroundBlur_15915_6891"/>
</filter>
<filter id="filter3_i_15915_6891" x="40.0664" y="50.3652" width="35.7461" height="8.98242" filterUnits="userSpaceOnUse" color-interpolation-filters="sRGB">
<feFlood flood-opacity="0" result="BackgroundImageFix"/>
<feBlend mode="normal" in="SourceGraphic" in2="BackgroundImageFix" result="shape"/>
<feColorMatrix in="SourceAlpha" type="matrix" values="0 0 0 0 0 0 0 0 0 0 0 0 0 0 0 0 0 0 127 0" result="hardAlpha"/>
<feOffset dx="-2" dy="-2"/>
<feGaussianBlur stdDeviation="2"/>
<feComposite in2="hardAlpha" operator="arithmetic" k2="-1" k3="1"/>
<feColorMatrix type="matrix" values="0 0 0 0 1 0 0 0 0 1 0 0 0 0 1 0 0 0 0.1 0"/>
<feBlend mode="normal" in2="shape" result="effect1_innerShadow_15915_6891"/>
</filter>
</defs>
</svg>
