<svg width="129" height="129" viewBox="0 0 129 129" fill="none" xmlns="http://www.w3.org/2000/svg">
<path d="M20.951 21.0162C20.4118 12.5724 26.1372 5.63217 32.177 2.52265C44.0568 -3.56278 57.0907 2.1526 64.5005 11.6751C71.91 2.14926 84.936 -3.57256 96.802 2.50825C102.821 5.5752 108.29 12.3399 107.983 20.9513C116.427 20.4121 123.367 26.1375 126.476 32.1774C132.561 44.057 126.846 57.0906 117.325 64.5006C126.851 71.9102 132.573 84.9365 126.492 96.8028C123.425 102.821 116.66 108.292 108.049 107.984C108.588 116.428 102.863 123.368 96.823 126.477C84.943 132.563 71.9089 126.847 64.4992 117.324C57.0897 126.851 44.0635 132.573 32.1973 126.492C26.1787 123.425 20.7088 116.66 21.0165 108.049C12.5727 108.588 5.63265 102.862 2.52316 96.8226C-3.56208 84.9428 2.1529 71.909 11.675 64.4991C2.14925 57.0895 -3.57253 44.0633 2.50822 32.1972C5.57513 26.1785 12.3398 20.7085 20.951 21.0162Z" fill="#2BAB66"/>
</svg>
