<svg width="24" height="24" viewBox="0 0 24 24" fill="none" xmlns="http://www.w3.org/2000/svg">
<path fill-rule="evenodd" clip-rule="evenodd" d="M11.9998 2.1001C9.77454 2.1001 7.94515 2.88789 6.68766 4.37443C5.44753 5.84044 4.84979 7.8832 4.84979 10.2501L4.84979 11.0001C4.84979 13.4652 4.16656 14.9249 3.19343 15.8682C2.81189 16.2381 2.77229 16.7499 2.90867 17.1264C3.04738 17.5094 3.42748 17.9001 3.99934 17.9001H20.0002C20.5721 17.9001 20.9522 17.5094 21.0909 17.1264C21.2273 16.7499 21.1877 16.2381 20.8061 15.8682C19.833 14.9249 19.1498 13.4652 19.1498 11.0001L19.1498 10.2501C19.1498 7.8832 18.552 5.84044 17.3119 4.37443C16.0544 2.88789 14.225 2.1001 11.9998 2.1001ZM6.64979 10.2501C6.64979 8.16522 7.17704 6.58298 8.06191 5.53694C8.92942 4.51142 10.225 3.9001 11.9998 3.9001C13.7745 3.9001 15.0701 4.51142 15.9377 5.53693C16.8225 6.58298 17.3498 8.16522 17.3498 10.2501L17.3498 11.0001C17.3498 13.1628 17.8179 14.8273 18.6685 16.1001H5.33107C6.18165 14.8273 6.64979 13.1628 6.64979 11.0001L6.64979 10.2501Z" fill="#171719"/>
<path d="M9.0999 20.1001V21.9001H14.8999V20.1001H9.0999Z" fill="#171719"/>
</svg>
