<svg width="24" height="24" viewBox="0 0 24 24" fill="none" xmlns="http://www.w3.org/2000/svg">
<path fill-rule="evenodd" clip-rule="evenodd" d="M9.99991 2.1001C5.63686 2.1001 2.09991 5.63705 2.09991 10.0001C2.09991 14.3631 5.63686 17.9001 9.99991 17.9001C11.8572 17.9001 13.5648 17.2592 14.9136 16.1864L19.8636 21.1365C20.2151 21.4879 20.785 21.4879 21.1364 21.1365C21.4879 20.785 21.4879 20.2151 21.1364 19.8637L16.1864 14.9136C17.259 13.5648 17.8999 11.8573 17.8999 10.0001C17.8999 5.63705 14.363 2.1001 9.99991 2.1001ZM3.89991 10.0001C3.89991 6.63116 6.63097 3.9001 9.99991 3.9001C13.3688 3.9001 16.0999 6.63116 16.0999 10.0001C16.0999 13.369 13.3688 16.1001 9.99991 16.1001C6.63097 16.1001 3.89991 13.369 3.89991 10.0001Z" fill="#171719"/>
</svg>
