<svg width="29" height="28" viewBox="0 0 29 28" fill="none" xmlns="http://www.w3.org/2000/svg">
<path d="M21.834 9.33337C21.834 7.47686 21.0965 5.69638 19.7838 4.38363C18.471 3.07087 16.6905 2.33337 14.834 2.33337C12.9775 2.33337 11.197 3.07087 9.88423 4.38363C8.57147 5.69638 7.83397 7.47686 7.83397 9.33337C7.83397 12.9386 6.92452 15.407 5.90858 17.0397C5.05161 18.4169 4.62313 19.1055 4.63884 19.2976C4.65624 19.5103 4.7013 19.5914 4.8727 19.7185C5.0275 19.8334 5.72532 19.8334 7.12097 19.8334H22.547C23.9427 19.8334 24.6405 19.8334 24.7953 19.7185C24.9667 19.5914 25.0117 19.5103 25.0291 19.2976C25.0448 19.1055 24.6164 18.4169 23.7594 17.0397C22.7435 15.407 21.834 12.9386 21.834 9.33337Z" fill="#688CA7"/>
<path d="M17.1673 24.5H12.5007M21.834 9.33337C21.834 7.47686 21.0965 5.69638 19.7838 4.38363C18.471 3.07087 16.6905 2.33337 14.834 2.33337C12.9775 2.33337 11.197 3.07087 9.88423 4.38363C8.57147 5.69638 7.83397 7.47686 7.83397 9.33337C7.83397 12.9386 6.92452 15.407 5.90858 17.0397C5.05161 18.4169 4.62313 19.1055 4.63884 19.2976C4.65624 19.5103 4.7013 19.5914 4.8727 19.7185C5.0275 19.8334 5.72532 19.8334 7.12097 19.8334H22.547C23.9427 19.8334 24.6405 19.8334 24.7953 19.7185C24.9667 19.5914 25.0117 19.5103 25.0291 19.2976C25.0448 19.1055 24.6164 18.4169 23.7594 17.0397C22.7435 15.407 21.834 12.9386 21.834 9.33337Z" stroke="#688CA7" stroke-width="2" stroke-linecap="round" stroke-linejoin="round"/>
</svg>
