<svg width="29" height="28" viewBox="0 0 29 28" fill="none" xmlns="http://www.w3.org/2000/svg">
<path d="M14.8339 2.33337L16.3523 8.40703C16.6486 9.5922 16.7968 10.1848 17.1053 10.667C17.3783 11.0935 17.7405 11.4557 18.167 11.7286C18.6492 12.0372 19.2418 12.1853 20.427 12.4816L26.5006 14L20.427 15.5185C19.2418 15.8147 18.6492 15.9629 18.167 16.2714C17.7405 16.5444 17.3783 16.9066 17.1053 17.3331C16.7968 17.8153 16.6486 18.4079 16.3523 19.5931L14.8339 25.6667L13.3155 19.5931C13.0192 18.4079 12.8711 17.8153 12.5625 17.3331C12.2896 16.9066 11.9274 16.5444 11.5009 16.2714C11.0187 15.9629 10.4261 15.8147 9.24091 15.5185L3.16724 14L9.24091 12.4816C10.4261 12.1853 11.0187 12.0372 11.5009 11.7286C11.9274 11.4557 12.2896 11.0935 12.5625 10.667C12.8711 10.1848 13.0192 9.5922 13.3155 8.40703L14.8339 2.33337Z" fill="#688CA7"/>
<path d="M14.8339 2.33337L16.3523 8.40703C16.6486 9.5922 16.7968 10.1848 17.1053 10.667C17.3783 11.0935 17.7405 11.4557 18.167 11.7286C18.6492 12.0372 19.2418 12.1853 20.427 12.4816L26.5006 14L20.427 15.5185C19.2418 15.8147 18.6492 15.9629 18.167 16.2714C17.7405 16.5444 17.3783 16.9066 17.1053 17.3331C16.7968 17.8153 16.6486 18.4079 16.3523 19.5931L14.8339 25.6667L13.3155 19.5931C13.0192 18.4079 12.8711 17.8153 12.5625 17.3331C12.2896 16.9066 11.9274 16.5444 11.5009 16.2714C11.0187 15.9629 10.4261 15.8147 9.24091 15.5185L3.16724 14L9.24091 12.4816C10.4261 12.1853 11.0187 12.0372 11.5009 11.7286C11.9274 11.4557 12.2896 11.0935 12.5625 10.667C12.8711 10.1848 13.0192 9.5922 13.3155 8.40703L14.8339 2.33337Z" fill="#688CA7"/>
<path d="M14.8339 2.33337L16.3523 8.40703C16.6486 9.5922 16.7968 10.1848 17.1053 10.667C17.3783 11.0935 17.7405 11.4557 18.167 11.7286C18.6492 12.0372 19.2418 12.1853 20.427 12.4816L26.5006 14L20.427 15.5185C19.2418 15.8147 18.6492 15.9629 18.167 16.2714C17.7405 16.5444 17.3783 16.9066 17.1053 17.3331C16.7968 17.8153 16.6486 18.4079 16.3523 19.5931L14.8339 25.6667L13.3155 19.5931C13.0192 18.4079 12.8711 17.8153 12.5625 17.3331C12.2896 16.9066 11.9274 16.5444 11.5009 16.2714C11.0187 15.9629 10.4261 15.8147 9.24091 15.5185L3.16724 14L9.24091 12.4816C10.4261 12.1853 11.0187 12.0372 11.5009 11.7286C11.9274 11.4557 12.2896 11.0935 12.5625 10.667C12.8711 10.1848 13.0192 9.5922 13.3155 8.40703L14.8339 2.33337Z" stroke="#688CA7" stroke-width="2" stroke-linecap="round" stroke-linejoin="round"/>
<path d="M14.8339 2.33337L16.3523 8.40703C16.6486 9.5922 16.7968 10.1848 17.1053 10.667C17.3783 11.0935 17.7405 11.4557 18.167 11.7286C18.6492 12.0372 19.2418 12.1853 20.427 12.4816L26.5006 14L20.427 15.5185C19.2418 15.8147 18.6492 15.9629 18.167 16.2714C17.7405 16.5444 17.3783 16.9066 17.1053 17.3331C16.7968 17.8153 16.6486 18.4079 16.3523 19.5931L14.8339 25.6667L13.3155 19.5931C13.0192 18.4079 12.8711 17.8153 12.5625 17.3331C12.2896 16.9066 11.9274 16.5444 11.5009 16.2714C11.0187 15.9629 10.4261 15.8147 9.24091 15.5185L3.16724 14L9.24091 12.4816C10.4261 12.1853 11.0187 12.0372 11.5009 11.7286C11.9274 11.4557 12.2896 11.0935 12.5625 10.667C12.8711 10.1848 13.0192 9.5922 13.3155 8.40703L14.8339 2.33337Z" stroke="#688CA7" stroke-width="2" stroke-linecap="round" stroke-linejoin="round"/>
</svg>
