<svg width="20" height="20" viewBox="0 0 20 20" fill="none" xmlns="http://www.w3.org/2000/svg">
<g clip-path="url(#clip0_354_672)">
<path d="M9.99984 18.3334C14.6022 18.3334 18.3332 14.6025 18.3332 10.0001C18.3332 5.39771 14.6022 1.66675 9.99984 1.66675C5.39746 1.66675 1.6665 5.39771 1.6665 10.0001C1.6665 14.6025 5.39746 18.3334 9.99984 18.3334Z" stroke="#ADB0B9" stroke-width="2" stroke-linecap="round" stroke-linejoin="round"/>
<path fill-rule="evenodd" clip-rule="evenodd" d="M9.99698 7.55667C9.16392 6.58275 7.77473 6.32077 6.73096 7.21259C5.68719 8.10441 5.54024 9.59549 6.35992 10.6502C6.88493 11.3258 8.22949 12.5786 9.12837 13.3921C9.42708 13.6624 9.57643 13.7975 9.75533 13.8517C9.90911 13.8983 10.0849 13.8983 10.2386 13.8517C10.4175 13.7975 10.5669 13.6624 10.8656 13.3921C11.7645 12.5786 13.109 11.3258 13.634 10.6502C14.4537 9.59549 14.3247 8.09503 13.263 7.21259C12.2013 6.33015 10.83 6.58275 9.99698 7.55667Z" stroke="#ADB0B9" stroke-width="2" stroke-linecap="round" stroke-linejoin="round"/>
</g>
<defs>
<clipPath id="clip0_354_672">
<rect width="20" height="20" fill="white"/>
</clipPath>
</defs>
</svg>
