<svg width="32" height="32" viewBox="0 0 32 32" fill="none" xmlns="http://www.w3.org/2000/svg">
<g clip-path="url(#clip0_293_13792)">
<path d="M14.1753 28H17.8241C18.5606 28 19.1577 27.4029 19.1577 26.6664V17.9648C19.1577 17.2283 18.5606 16.6312 17.8241 16.6312H14.1753C13.4388 16.6312 12.8417 17.2283 12.8417 17.9648V26.6664C12.8417 27.4029 13.4388 28 14.1753 28Z" fill="#007FF3"/>
<path d="M5.33352 28H8.98232C9.71885 28 10.3159 27.4029 10.3159 26.6664L10.3159 11.6496C10.3159 10.9131 9.71885 10.316 8.98232 10.316H5.33352C4.59699 10.316 3.99992 10.9131 3.99992 11.6496L3.99992 26.6664C3.99992 27.4029 4.59699 28 5.33352 28Z" fill="#00BC79"/>
<path d="M23.0176 28H26.6664C27.4029 28 28 27.4029 28 26.6664L28 5.3336C28 4.59707 27.4029 4 26.6664 4H23.0176C22.2811 4 21.684 4.59707 21.684 5.3336L21.684 26.6664C21.684 27.4029 22.2811 28 23.0176 28Z" fill="#FC2D4C"/>
</g>
<rect x="0.5" y="0.5" width="31" height="31" stroke="black"/>
<defs>
<clipPath id="clip0_293_13792">
<rect width="32" height="32" fill="white"/>
</clipPath>
</defs>
</svg>
