<svg width="24" height="24" viewBox="0 0 24 24" fill="none" xmlns="http://www.w3.org/2000/svg">
<g clip-path="url(#clip0_15915_18053)">
<path d="M22.098 21.2826L20.346 20.8662C19.7406 20.7222 19.2834 20.2248 19.1916 19.6098L18.7404 16.4634C18.5778 15.3768 18.819 14.2662 19.4382 13.3584C20.4498 11.877 20.8278 8.94961 20.1858 5.11201C20.0124 4.07701 19.7508 2.90581 19.4712 1.93501C19.3914 1.65781 19.1178 1.48441 18.8334 1.53241L12.9324 2.51941C12.648 2.56681 12.4458 2.81941 12.4602 3.10801C12.5112 4.11721 12.645 5.30941 12.8178 6.34441C13.4598 10.1826 14.7702 12.828 16.2084 13.8996C17.0898 14.556 17.6796 15.528 17.8794 16.6086L18.4716 19.7292C18.585 20.3412 18.3144 20.9604 17.7888 21.2934L16.266 22.2582C16.1832 22.3104 16.2324 22.4388 16.329 22.4226L22.092 21.459C22.1886 21.4428 22.1934 21.3048 22.098 21.2826Z" fill="#E5E9EE"/>
<path d="M16.5672 13.4178C15.2904 12.4674 14.1972 10.1568 13.5774 7.1448C13.5774 7.1448 19.4202 4.1736 19.5942 5.211C20.1708 8.6586 19.9272 11.5776 18.9426 13.0206C18.4686 13.7142 17.2416 13.9206 16.5672 13.4178Z" fill="#FFDA16"/>
<path d="M13.5774 7.1454C13.5774 7.1454 14.8998 6.4578 16.2636 5.5212C17.6268 4.5846 19.4118 4.1754 19.5948 5.2116C19.7754 6.2358 13.5774 7.1454 13.5774 7.1454Z" fill="#FFC100"/>
<path d="M8.05128 22.4388L6.53628 21.4656C6.01308 21.129 5.74668 20.5086 5.86368 19.8972L6.55428 16.485C6.76068 15.4062 7.35648 14.4378 8.24148 13.7868C9.68688 12.7242 11.0135 10.0878 11.6801 6.2544C11.8601 5.22 12.0011 4.029 12.0587 3.0204C12.0749 2.7324 11.8745 2.4786 11.5901 2.4288L5.69568 1.404C5.41128 1.3548 5.13708 1.5258 5.05548 1.803C4.76928 2.772 4.49988 3.9408 4.32048 4.9752C3.65388 8.8092 4.01328 11.7396 5.01588 13.227C5.62968 14.1384 5.86428 15.2508 5.69448 16.3362L5.14548 19.7712C5.04948 20.3862 4.58928 20.8806 3.98268 21.0204L2.22588 21.426C2.13048 21.4482 2.13408 21.585 2.23068 21.6018L7.98768 22.6026C8.08428 22.6194 8.13408 22.4916 8.05188 22.4382L8.05128 22.4388Z" fill="#E5E9EE"/>
<path d="M5.51331 12.8916C4.69611 11.6784 4.40571 9.4314 4.68471 6.7092C4.68471 6.7092 6.46851 7.0812 8.24571 6.819C10.0229 6.5562 11.0897 6.1518 11.0897 6.1518C10.4909 9.5964 9.29391 12.2694 7.88751 13.3032C7.20951 13.8018 5.98311 13.5888 5.51331 12.8916Z" fill="#FFDA16"/>
<path d="M4.68408 6.7092C4.68408 6.7092 6.46788 7.0812 8.24508 6.819C10.0223 6.5562 11.0891 6.1518 11.0891 6.1518C10.4903 9.5964 4.68408 6.7092 4.68408 6.7092Z" fill="#FFC100"/>
</g>
<defs>
<clipPath id="clip0_15915_18053">
<rect width="24" height="24" fill="white"/>
</clipPath>
</defs>
</svg>
