<svg width="41" height="40" viewBox="0 0 41 40" fill="none" xmlns="http://www.w3.org/2000/svg">
<g clip-path="url(#clip0_274_8085)">
<path fill-rule="evenodd" clip-rule="evenodd" d="M39.579 26.683L36.701 12.109C36.699 12.102 36.697 12.095 36.696 12.091L36.691 12.055H36.686C35.872 8.17396 32.381 5.10596 28.411 5.10596H13.09C9.12098 5.10596 5.62898 8.17396 4.81498 12.055H4.80998L4.80498 12.091C4.80498 12.091 4.80098 12.102 4.79998 12.109L1.92198 26.683C1.81898 27.134 1.75098 27.599 1.75098 28.08C1.75098 31.514 4.53598 34.297 7.96998 34.297C10.315 34.297 12.332 32.984 13.392 31.067L15.388 27.72L16.536 25.796C16.894 25.196 17.54 24.829 18.239 24.829H23.265C23.963 24.829 24.61 25.196 24.968 25.796L26.116 27.72L28.112 31.067C29.172 32.984 31.189 34.297 33.534 34.297C36.968 34.297 39.753 31.514 39.753 28.08C39.753 27.599 39.685 27.134 39.582 26.683H39.579Z" fill="#3D3D3D"/>
<path d="M18.5301 13.6553H9.30908V16.1343H18.5301V13.6553Z" fill="#767676"/>
<path d="M15.1592 10.2842H12.6802V19.5052H15.1592V10.2842Z" fill="#767676"/>
<path d="M25.064 16.3438C25.8643 16.3438 26.513 15.6951 26.513 14.8948C26.513 14.0945 25.8643 13.4458 25.064 13.4458C24.2637 13.4458 23.615 14.0945 23.615 14.8948C23.615 15.6951 24.2637 16.3438 25.064 16.3438Z" fill="#00BC79"/>
<path d="M31.1641 16.3438C31.9643 16.3438 32.6131 15.6951 32.6131 14.8948C32.6131 14.0945 31.9643 13.4458 31.1641 13.4458C30.3638 13.4458 29.7151 14.0945 29.7151 14.8948C29.7151 15.6951 30.3638 16.3438 31.1641 16.3438Z" fill="#EF4452"/>
<path d="M28.114 13.294C28.9143 13.294 29.563 12.6453 29.563 11.845C29.563 11.0447 28.9143 10.396 28.114 10.396C27.3138 10.396 26.665 11.0447 26.665 11.845C26.665 12.6453 27.3138 13.294 28.114 13.294Z" fill="#64A7FF"/>
<path d="M28.114 19.3941C28.9143 19.3941 29.563 18.7454 29.563 17.9451C29.563 17.1448 28.9143 16.4961 28.114 16.4961C27.3138 16.4961 26.665 17.1448 26.665 17.9451C26.665 18.7454 27.3138 19.3941 28.114 19.3941Z" fill="#FFC84D"/>
</g>
<defs>
<clipPath id="clip0_274_8085">
<rect width="40" height="40" fill="white" transform="translate(0.75)"/>
</clipPath>
</defs>
</svg>
