<svg width="32" height="32" viewBox="0 0 32 32" fill="none" xmlns="http://www.w3.org/2000/svg">
<g clip-path="url(#clip0_293_13812)">
<path d="M2.15189 26.5001C1.80549 26.8465 1.80549 27.4073 2.15189 27.7537L3.68789 29.2897C4.03429 29.6361 4.59509 29.6361 4.94149 29.2897L19.4567 14.7745L16.6671 11.9849L2.15189 26.5001Z" fill="#3D3D3D"/>
<path d="M23.3422 9.72242L21.719 8.09922C21.3966 7.77682 20.875 7.77682 20.5526 8.09922L16.667 11.9848L19.4566 14.7744L23.3422 10.8888C23.6646 10.5664 23.6646 10.0448 23.3422 9.72242Z" fill="#D5D5D5"/>
<path d="M31.4638 6.64C31.4638 6.8 31.3598 6.936 31.1998 6.968L28.8638 7.496C28.2878 7.624 27.8238 8.216 27.7198 8.968L27.2958 11.88C27.2718 12.048 27.1278 12.176 26.9598 12.176C26.7918 12.176 26.6478 12.048 26.6238 11.88L26.2078 8.968C26.0958 8.216 25.6398 7.624 25.0558 7.496L22.7198 6.968C22.5598 6.936 22.4558 6.8 22.4558 6.64C22.4558 6.48 22.5598 6.344 22.7198 6.312L25.0558 5.784C25.6398 5.656 26.0958 5.064 26.2078 4.312L26.6238 1.392C26.6478 1.232 26.7918 1.104 26.9598 1.104C27.1278 1.104 27.2718 1.232 27.2958 1.392L27.7198 4.312C27.8238 5.064 28.2878 5.656 28.8638 5.784L31.2078 6.312C31.3598 6.344 31.4638 6.48 31.4638 6.64Z" fill="#FFCD00"/>
<path d="M26.464 18.136C26.464 18.296 26.36 18.432 26.2 18.464L24.568 18.832C24.2 18.912 23.912 19.296 23.84 19.776L23.544 21.816C23.52 21.984 23.384 22.104 23.216 22.104C23.048 22.104 22.904 21.984 22.88 21.816L22.584 19.776C22.512 19.296 22.224 18.912 21.864 18.832L20.224 18.464C20.064 18.432 19.96 18.296 19.96 18.136C19.96 17.976 20.064 17.84 20.224 17.808L21.864 17.44C22.224 17.36 22.512 16.976 22.584 16.496L22.88 14.456C22.904 14.288 23.048 14.168 23.216 14.168C23.384 14.168 23.52 14.288 23.544 14.456L23.84 16.496C23.912 16.976 24.2 17.36 24.568 17.44L26.2 17.808C26.36 17.84 26.464 17.976 26.464 18.136Z" fill="#FFCD00"/>
<path d="M17.1199 5.6399C17.1199 5.7999 17.0079 5.9359 16.8559 5.9759L15.5439 6.2639C15.2799 6.3279 15.0719 6.6079 15.0159 6.9679L14.7839 8.5999C14.7599 8.7679 14.6159 8.8879 14.4479 8.8879C14.2799 8.8879 14.1359 8.7679 14.1119 8.5999L13.8799 6.9679C13.8239 6.6079 13.6159 6.3279 13.3519 6.2639L12.0399 5.9759C11.8879 5.9359 11.7759 5.7999 11.7759 5.6399C11.7759 5.4879 11.8879 5.3519 12.0399 5.3119L13.3519 5.0239C13.6159 4.9599 13.8239 4.6799 13.8799 4.3199L14.1119 2.6879C14.1359 2.5199 14.2799 2.3999 14.4479 2.3999C14.6159 2.3999 14.7599 2.5199 14.7839 2.6879L15.0159 4.3199C15.0719 4.6799 15.2799 4.9599 15.5439 5.0239L16.8559 5.3119C17.0079 5.3519 17.1199 5.4879 17.1199 5.6399Z" fill="#FFCD00"/>
</g>
<defs>
<clipPath id="clip0_293_13812">
<rect width="32" height="32" fill="white"/>
</clipPath>
</defs>
</svg>
