<svg width="24" height="24" viewBox="0 0 24 24" fill="none" xmlns="http://www.w3.org/2000/svg">
<g clip-path="url(#clip0_15915_18070)">
<path d="M9.51123 8.2038H11.82C12.4482 8.2038 12.957 7.695 12.957 7.0668V5.4456L9.51123 8.2038Z" fill="#F78700"/>
<path d="M5.55721 4.521C4.26601 5.2194 3.68221 5.8494 3.31141 6.9396C2.40481 9.606 1.53121 16.26 1.50061 18.8754C1.47001 21.4908 3.35581 22.35 5.56201 22.35C7.76821 22.35 17.787 22.3692 19.8114 22.3692C21.6636 22.3692 22.5006 21.5046 22.5006 19.3998C22.5006 14.8614 19.722 11.2974 15.4518 11.2974C11.1816 11.2974 7.40101 15.9684 7.40101 15.9684L7.75861 8.8008C7.77541 8.466 8.05201 8.2026 8.38681 8.2026H9.51181L13.0686 5.8914C13.6344 5.5236 13.7862 4.7622 13.404 4.206L12.0534 2.2386C11.7066 1.7334 11.0388 1.569 10.4994 1.8588C9.08341 2.6202 6.47881 4.0212 5.55721 4.5198V4.521Z" fill="#FFC84D"/>
</g>
<defs>
<clipPath id="clip0_15915_18070">
<rect width="24" height="24" fill="white"/>
</clipPath>
</defs>
</svg>
