<svg width="24" height="24" viewBox="0 0 24 24" fill="none" xmlns="http://www.w3.org/2000/svg">
<g opacity="0.4" clip-path="url(#clip0_15915_18038)">
<path d="M17.0708 5.01923C17.0708 5.35043 16.802 5.61923 16.4708 5.61923H7.52964C7.19844 5.61923 6.92964 5.35043 6.92964 5.01923V4.40663H5.32104V20.603H18.6788V4.40723H17.0702V5.01983L17.0708 5.01923Z" fill="white"/>
<path d="M7.52969 5.6188H16.4709C16.8021 5.6188 17.0709 5.35 17.0709 5.0188V4.6504H6.92969V5.0188C6.92969 5.35 7.19849 5.6188 7.52969 5.6188Z" fill="#A3ADB7"/>
<path d="M16.4721 3.12503H13.7061C13.7121 3.06503 13.7241 3.00503 13.7241 2.93903C13.7241 2.71703 13.6821 2.50102 13.5981 2.30302C13.3521 1.71502 12.7641 1.29502 12.0801 1.29502C11.3961 1.29502 10.8141 1.71502 10.5681 2.30302C10.4841 2.50102 10.4361 2.71703 10.4361 2.93903C10.4361 3.00503 10.4481 3.06503 10.4541 3.12503H7.53213C7.19613 3.12503 6.93213 3.39503 6.93213 3.72503V4.64903H17.0721V3.72503C17.0721 3.39503 16.8021 3.12503 16.4721 3.12503ZM12.0801 2.36302C12.4041 2.36302 12.6621 2.62103 12.6621 2.93903C12.6621 3.25703 12.4041 3.52102 12.0801 3.52102C11.7621 3.52102 11.5041 3.25703 11.5041 2.93903C11.5041 2.62103 11.7621 2.36302 12.0801 2.36302Z" fill="#D0D5DA"/>
<path d="M19.1504 2.3062H13.5986C13.6802 2.5012 13.7258 2.7154 13.7258 2.9404C13.7258 3.004 13.7138 3.0646 13.7072 3.1264H16.4708C16.802 3.1264 17.0708 3.3952 17.0708 3.7264V4.408H18.6794V20.6044H5.32105V4.408H6.92965V3.7264C6.92965 3.3952 7.19845 3.1264 7.52965 3.1264H10.457C10.4498 3.0646 10.4384 3.004 10.4384 2.9404C10.4384 2.7154 10.484 2.5012 10.5656 2.3062H4.84945C4.15285 2.3062 3.58765 2.8714 3.58765 3.568V21.4444C3.58765 22.1416 4.15285 22.7062 4.84945 22.7062H19.1504C19.847 22.7062 20.4122 22.141 20.4122 21.4444V3.568C20.4122 2.8708 19.847 2.3062 19.1504 2.3062Z" fill="#FFC33A"/>
<path d="M12.0819 2.3614C11.7621 2.3614 11.5029 2.6206 11.5029 2.9404C11.5029 3.2602 11.7621 3.5194 12.0819 3.5194C12.4017 3.5194 12.6609 3.2602 12.6609 2.9404C12.6609 2.6206 12.4017 2.3614 12.0819 2.3614Z" fill="#FFC33A"/>
</g>
<defs>
<clipPath id="clip0_15915_18038">
<rect width="24" height="24" fill="white"/>
</clipPath>
</defs>
</svg>
