<svg width="41" height="40" viewBox="0 0 41 40" fill="none" xmlns="http://www.w3.org/2000/svg">
<g clip-path="url(#clip0_274_8082)">
<path d="M27.8879 7.57715C27.8879 8.12915 27.4399 8.57715 26.8879 8.57715H11.9859C11.4339 8.57715 10.9859 8.12915 10.9859 7.57715V6.55615H8.30493V33.5502H30.5679V6.55715H27.8869V7.57815L27.8879 7.57715Z" fill="white"/>
<path d="M11.9861 8.57689H26.8881C27.4401 8.57689 27.8881 8.12889 27.8881 7.57689V6.96289H10.9861V7.57689C10.9861 8.12889 11.4341 8.57689 11.9861 8.57689Z" fill="#A3ADB7"/>
<path d="M26.89 4.42012H22.28C22.29 4.32012 22.31 4.22012 22.31 4.11012C22.31 3.74012 22.24 3.38012 22.1 3.05012C21.69 2.07012 20.71 1.37012 19.57 1.37012C18.43 1.37012 17.46 2.07012 17.05 3.05012C16.91 3.38012 16.83 3.74012 16.83 4.11012C16.83 4.22012 16.85 4.32012 16.86 4.42012H11.99C11.43 4.42012 10.99 4.87012 10.99 5.42012V6.96012H27.89V5.42012C27.89 4.87012 27.44 4.42012 26.89 4.42012ZM19.57 3.15012C20.11 3.15012 20.54 3.58012 20.54 4.11012C20.54 4.64012 20.11 5.08012 19.57 5.08012C19.04 5.08012 18.61 4.64012 18.61 4.11012C18.61 3.58012 19.04 3.15012 19.57 3.15012Z" fill="#D0D5DA"/>
<path d="M31.354 3.0542H22.101C22.237 3.3792 22.313 3.7362 22.313 4.1112C22.313 4.2172 22.293 4.3182 22.282 4.4212H26.888C27.44 4.4212 27.888 4.8692 27.888 5.4212V6.5572H30.569V33.5512H8.30502V6.5572H10.986V5.4212C10.986 4.8692 11.434 4.4212 11.986 4.4212H16.865C16.853 4.3182 16.834 4.2172 16.834 4.1112C16.834 3.7362 16.91 3.3792 17.046 3.0542H7.51902C6.35802 3.0542 5.41602 3.9962 5.41602 5.1572V34.9512C5.41602 36.1132 6.35802 37.0542 7.51902 37.0542H31.354C32.515 37.0542 33.457 36.1122 33.457 34.9512V5.1572C33.457 3.9952 32.515 3.0542 31.354 3.0542Z" fill="#FFC33A"/>
<path d="M19.5729 3.146C19.0399 3.146 18.6079 3.578 18.6079 4.111C18.6079 4.644 19.0399 5.076 19.5729 5.076C20.1059 5.076 20.5379 4.644 20.5379 4.111C20.5379 3.578 20.1059 3.146 19.5729 3.146Z" fill="#FFC33A"/>
</g>
<defs>
<clipPath id="clip0_274_8082">
<rect width="40" height="40" fill="white" transform="translate(0.25)"/>
</clipPath>
</defs>
</svg>
