<svg width="28" height="28" viewBox="0 0 28 28" fill="none" xmlns="http://www.w3.org/2000/svg">
<path fill-rule="evenodd" clip-rule="evenodd" d="M16.6586 2.51111C16.2265 2.3335 15.6788 2.3335 14.5833 2.3335C13.4879 2.3335 12.9401 2.3335 12.5081 2.51111C11.932 2.74793 11.4743 3.20217 11.2357 3.7739C11.1267 4.03489 11.0841 4.33841 11.0674 4.78115C11.0429 5.43179 10.7067 6.03404 10.1385 6.35958C9.57037 6.68512 8.87674 6.67296 8.29673 6.36871C7.90204 6.16168 7.61587 6.04656 7.33365 6.00968C6.71544 5.92891 6.09021 6.09517 5.59552 6.4719C5.22449 6.75444 4.95062 7.22521 4.40289 8.16675C3.85515 9.10829 3.58128 9.57906 3.52024 10.0392C3.43885 10.6528 3.60638 11.2733 3.98597 11.7642C4.15923 11.9883 4.40274 12.1767 4.78065 12.4124C5.33623 12.7588 5.69371 13.349 5.69367 14.0002C5.69364 14.6513 5.33618 15.2414 4.78065 15.5878C4.40267 15.8235 4.15913 16.0119 3.98586 16.236C3.60626 16.727 3.43873 17.3475 3.52012 17.961C3.58117 18.4212 3.85503 18.892 4.40277 19.8335C4.95051 20.775 5.22438 21.2458 5.5954 21.5283C6.0901 21.9051 6.71532 22.0713 7.33354 21.9906C7.61574 21.9537 7.9019 21.8386 8.29655 21.6316C8.87661 21.3273 9.57028 21.3151 10.1385 21.6407C10.7067 21.9663 11.0429 22.5686 11.0674 23.2192C11.0841 23.6619 11.1267 23.9654 11.2357 24.2264C11.4743 24.7982 11.932 25.2524 12.5081 25.4892C12.9401 25.6668 13.4879 25.6668 14.5833 25.6668C15.6788 25.6668 16.2265 25.6668 16.6586 25.4892C17.2347 25.2524 17.6924 24.7982 17.931 24.2264C18.04 23.9654 18.0826 23.6619 18.0993 23.2191C18.1238 22.5685 18.46 21.9663 19.0281 21.6407C19.5963 21.3151 20.29 21.3272 20.87 21.6315C21.2647 21.8385 21.5508 21.9536 21.833 21.9905C22.4512 22.0713 23.0765 21.905 23.5712 21.5283C23.9422 21.2457 24.216 20.775 24.7638 19.8334C25.3115 18.8919 25.5854 18.4211 25.6464 17.9609C25.7278 17.3474 25.5603 16.7269 25.1807 16.2359C25.0074 16.0118 24.7639 15.8235 24.3859 15.5878C23.8304 15.2413 23.473 14.6512 23.473 14.0001C23.473 13.349 23.8305 12.7589 24.3859 12.4126C24.764 12.1768 25.0075 11.9884 25.1808 11.7643C25.5604 11.2733 25.7279 10.6528 25.6465 10.0393C25.5855 9.57914 25.3116 9.10837 24.7639 8.16683C24.2162 7.22529 23.9423 6.75452 23.5713 6.47198C23.0766 6.09525 22.4513 5.92899 21.8331 6.00976C21.5509 6.04663 21.2648 6.16175 20.8701 6.36876C20.2901 6.67302 19.5964 6.68518 19.0282 6.35962C18.46 6.03405 18.1238 5.43177 18.0993 4.78109C18.0826 4.33839 18.0399 4.03488 17.931 3.7739C17.6924 3.20217 17.2347 2.74793 16.6586 2.51111ZM14.5833 17.5002C16.531 17.5002 18.11 15.9332 18.11 14.0002C18.11 12.0672 16.531 10.5002 14.5833 10.5002C12.6356 10.5002 11.0567 12.0672 11.0567 14.0002C11.0567 15.9332 12.6356 17.5002 14.5833 17.5002Z" fill="#5A5C63"/>
</svg>
