<svg width="20" height="20" viewBox="0 0 20 20" fill="none" xmlns="http://www.w3.org/2000/svg">
<g clip-path="url(#clip0_16148_9083)">
<path d="M10.75 12.5H9.25V15.8335H10.75V12.5Z" fill="#FFAA00"/>
<path d="M14.837 10.1225C14.232 10.1225 13.6275 9.95595 13.0515 9.62295C11.592 8.77895 10.5725 7.00095 10.5725 5.29945V4.72645L14.5615 3.63745H17.5015C18.1905 3.63745 18.7515 4.19845 18.7515 4.88745V5.79045C18.7515 7.39845 17.9325 8.86895 16.6145 9.62745C16.0415 9.95745 15.4395 10.122 14.8375 10.122L14.837 10.1225ZM12.127 5.85745C12.315 6.84895 12.973 7.84495 13.8025 8.32445C14.487 8.72045 15.1815 8.72095 15.866 8.32745C16.7205 7.83545 17.2515 6.86345 17.2515 5.79045V5.13745H14.7625L12.127 5.85695V5.85745Z" fill="#FFCD00"/>
<path d="M5.16304 10.1225C4.56104 10.1225 3.95904 9.95745 3.38554 9.62745C2.06754 8.86895 1.24854 7.39845 1.24854 5.79045V4.88745C1.24854 4.19845 1.80954 3.63745 2.49854 3.63745H5.43854L9.42754 4.72645V5.29945C9.42754 7.00095 8.40804 8.77895 6.94854 9.62295C6.37304 9.95595 5.76804 10.1225 5.16304 10.1225ZM2.74854 5.13795V5.79095C2.74854 6.86395 3.27954 7.83595 4.13404 8.32795C4.81904 8.72195 5.51304 8.72095 6.19754 8.32495C7.02704 7.84545 7.68504 6.84945 7.87304 5.85795L5.23754 5.13845H2.74854V5.13795Z" fill="#FFCD00"/>
<path d="M16.0389 8.294C16.0389 11.6615 13.2829 14.385 9.90345 14.3325C6.56895 14.2805 3.96045 11.4115 3.96045 8.077V2.6665C3.96045 2.114 4.40795 1.6665 4.96045 1.6665H15.0389C15.5914 1.6665 16.0389 2.114 16.0389 2.6665V8.294Z" fill="#FFCD00"/>
<path d="M13.6674 18.5835H6.33244C5.92294 18.5835 5.63394 18.1825 5.76344 17.794L6.22644 16.4045C6.38994 15.9145 6.84844 15.584 7.36494 15.584H12.6349C13.1514 15.584 13.6099 15.9145 13.7734 16.4045L14.2364 17.794C14.3659 18.1825 14.0769 18.5835 13.6674 18.5835Z" fill="#FFCD00"/>
</g>
<defs>
<clipPath id="clip0_16148_9083">
<rect width="20" height="20" fill="white"/>
</clipPath>
</defs>
</svg>
