<svg width="24" height="24" viewBox="0 0 24 24" fill="none" xmlns="http://www.w3.org/2000/svg">
<g clip-path="url(#clip0_16983_4421)">
<path fill-rule="evenodd" clip-rule="evenodd" d="M2.62549 3.288V20.712C2.62549 21.3684 3.15709 21.9 3.81349 21.9H13.5155L19.4555 15.96V3.288C19.4555 2.6316 18.9239 2.1 18.2675 2.1H3.81349C3.15709 2.1 2.62549 2.6316 2.62549 3.288Z" fill="#E5E9EE"/>
<path fill-rule="evenodd" clip-rule="evenodd" d="M14.7036 15.96H19.4556L13.5156 21.9V17.148C13.5156 16.4916 14.0472 15.96 14.7036 15.96Z" fill="#C0C7D1"/>
<path d="M19.455 5.3664H2.625V5.949H19.455V5.3664Z" fill="#D0D5DA"/>
<path d="M19.455 8.118H2.625V8.7006H19.455V8.118Z" fill="#D0D5DA"/>
<path d="M19.455 10.8696H2.625V11.4522H19.455V10.8696Z" fill="#D0D5DA"/>
<path d="M19.455 13.6212H2.625V14.2038H19.455V13.6212Z" fill="#D0D5DA"/>
<path d="M19.4556 3.858H20.7924C21.114 3.858 21.375 4.119 21.375 4.4406V7.5294C21.375 7.851 21.114 8.112 20.7924 8.112H19.4556V3.8586V3.858Z" fill="#4592FB"/>
<path d="M20.7924 14.1114H19.4556V9.858H20.7924C21.114 9.858 21.375 10.119 21.375 10.4406V13.5294C21.375 13.851 21.114 14.112 20.7924 14.112V14.1114Z" fill="#FFC100"/>
</g>
<defs>
<clipPath id="clip0_16983_4421">
<rect width="24" height="24" fill="white"/>
</clipPath>
</defs>
</svg>
