<svg width="20" height="20" viewBox="0 0 20 20" fill="none" xmlns="http://www.w3.org/2000/svg">
<g clip-path="url(#clip0_16148_9044)">
<path d="M10.0001 16.815C14.3336 16.815 17.8466 13.3307 17.8466 9.0325C17.8466 4.73434 14.3336 1.25 10.0001 1.25C5.66656 1.25 2.15356 4.73434 2.15356 9.0325C2.15356 13.3307 5.66656 16.815 10.0001 16.815Z" fill="#93C9FF"/>
<path d="M2.15358 9.0325C2.15358 4.7345 5.66658 1.25 10.0001 1.25C14.3336 1.25 17.8466 4.7345 17.8466 9.0325C17.8466 13.3305 2.15358 13.3305 2.15358 9.0325Z" fill="#3182F6"/>
<path d="M2.15356 9.03246C2.15356 4.73446 17.8471 4.73446 17.8471 9.03246C17.8471 13.3305 2.15356 13.3305 2.15356 9.03246Z" fill="#64A7FF"/>
<path d="M12.9426 7.14299C13.5291 7.14299 14.0046 6.67154 14.0046 6.08999C14.0046 5.50843 13.5291 5.03699 12.9426 5.03699C12.3561 5.03699 11.8806 5.50843 11.8806 6.08999C11.8806 6.67154 12.3561 7.14299 12.9426 7.14299Z" fill="white"/>
<path d="M14.751 18.75H5.24904C4.88854 18.75 4.65104 18.374 4.80654 18.0485L5.81004 15.946C5.89154 15.7755 6.06354 15.667 6.25254 15.667H13.748C13.937 15.667 14.109 15.7755 14.1905 15.946L15.194 18.0485C15.3495 18.374 15.1115 18.75 14.751 18.75Z" fill="#424F57"/>
</g>
<defs>
<clipPath id="clip0_16148_9044">
<rect width="20" height="20" fill="white"/>
</clipPath>
</defs>
</svg>
