<svg width="20" height="20" viewBox="0 0 20 20" fill="none" xmlns="http://www.w3.org/2000/svg">
<g clip-path="url(#clip0_16148_9053)">
<path d="M9.4852 10.2444C10.6359 9.15639 9.78919 6.39222 7.59394 4.07048C5.39869 1.74875 2.68623 0.748641 1.53549 1.83668C0.38476 2.92473 1.23151 5.6889 3.42676 8.01064C5.62201 10.3324 8.33446 11.3325 9.4852 10.2444Z" fill="#88D7D7"/>
<path d="M7.60884 13.0209C9.54681 11.4356 10.4809 9.37182 9.69513 8.41128C8.90938 7.45073 6.70137 7.9572 4.7634 9.54251C2.82543 11.1278 1.89137 13.1916 2.67712 14.1522C3.46286 15.1127 5.67087 14.6063 7.60884 13.0209Z" fill="#88D7D7"/>
<path d="M16.5734 8.01033C18.7687 5.68859 19.6154 2.92442 18.4647 1.83637C17.314 0.74833 14.6015 1.74843 12.4062 4.07017C10.211 6.39191 9.36425 9.15608 10.515 10.2441C11.6657 11.3322 14.3782 10.3321 16.5734 8.01033Z" fill="#88D7D7"/>
<path d="M17.3231 14.1526C18.1088 13.192 17.1747 11.1282 15.2368 9.5429C13.2988 7.95759 11.0908 7.45112 10.305 8.41166C9.5193 9.37221 10.4534 11.436 12.3913 13.0213C14.3293 14.6066 16.5373 15.1131 17.3231 14.1526Z" fill="#88D7D7"/>
<path d="M9.928 8.01749C10.6993 8.01749 11.3245 7.39225 11.3245 6.62099C11.3245 5.84972 10.6993 5.22449 9.928 5.22449C9.15673 5.22449 8.53149 5.84972 8.53149 6.62099C8.53149 7.39225 9.15673 8.01749 9.928 8.01749Z" fill="#FFB582"/>
<path d="M10.3826 7.78845H9.81812V8.46795H10.3826V7.78845Z" fill="#FFB582"/>
<path d="M9.03222 8.54003L5.52222 11.2095L6.07522 11.9115L8.78722 10.327V11.9115H11.3822L11.5312 9.73103L12.5997 10.3225C12.9347 10.508 13.3567 10.3675 13.5142 10.0185L14.1797 8.54003L13.3927 8.29553L12.9357 9.06553C12.8577 9.19653 12.6847 9.23153 12.5642 9.13853C12.1227 8.79653 11.1217 8.08203 10.4682 8.08203C9.60922 8.08203 9.03222 8.54003 9.03222 8.54003Z" fill="#FFB582"/>
<path d="M8.60864 8.77202L8.65264 11.986H11.5321L11.6256 8.39302L10.9201 8.09802L10.1196 9.52102L9.33164 8.28352L8.60864 8.77202Z" fill="#076565"/>
<path d="M8.64511 7.37555C8.91186 7.37555 9.12811 7.1593 9.12811 6.89255C9.12811 6.62579 8.91186 6.40955 8.64511 6.40955C8.37836 6.40955 8.16211 6.62579 8.16211 6.89255C8.16211 7.1593 8.37836 7.37555 8.64511 7.37555Z" fill="#FFB582"/>
<path d="M11.2325 7.05401C11.4993 7.05401 11.7155 6.83777 11.7155 6.57101C11.7155 6.30426 11.4993 6.08801 11.2325 6.08801C10.9658 6.08801 10.7495 6.30426 10.7495 6.57101C10.7495 6.83777 10.9658 7.05401 11.2325 7.05401Z" fill="#FFB582"/>
<path d="M8.53253 6.8435C8.53253 6.8435 9.44602 6.601 9.86152 5.977L8.86403 5.6355C8.86403 5.6355 8.44452 6.252 8.53202 6.843L8.53253 6.8435Z" fill="#FFDB87"/>
<path d="M11.3376 6.63295C11.3376 6.63295 10.3916 6.51645 9.89014 5.94945L10.8401 5.47095C10.8401 5.47095 11.3441 6.03045 11.3376 6.63295Z" fill="#FFDB87"/>
<path d="M9.51716 3.85902L8.60366 6.00652C8.57866 6.06552 8.62666 6.13002 8.69066 6.12202L11.0317 5.83402C11.0977 5.82602 11.1282 5.74752 11.0852 5.69702L9.51666 3.85852L9.51716 3.85902Z" fill="#076565"/>
<path d="M9.49716 4.18097C9.7352 4.18097 9.92816 3.988 9.92816 3.74997C9.92816 3.51193 9.7352 3.31897 9.49716 3.31897C9.25913 3.31897 9.06616 3.51193 9.06616 3.74997C9.06616 3.988 9.25913 4.18097 9.49716 4.18097Z" fill="#EF4452"/>
<path d="M13.9626 8.74504C14.3644 8.74504 14.6901 8.41933 14.6901 8.01754C14.6901 7.61575 14.3644 7.29004 13.9626 7.29004C13.5608 7.29004 13.2351 7.61575 13.2351 8.01754C13.2351 8.41933 13.5608 8.74504 13.9626 8.74504Z" fill="#FFB582"/>
<path d="M6.07421 12.1565C5.76121 12.408 5.38421 12.4955 5.16771 12.279C4.95121 12.0625 5.00621 11.6565 5.29021 11.3725C5.57421 11.0885 5.98021 11.0335 6.19671 11.25C6.41321 11.4665 6.41221 11.8845 6.07421 12.1565Z" fill="#FFB582"/>
<path d="M14.0797 5.93604H13.8562V7.69254H14.0797V5.93604Z" fill="#EF4452"/>
<path d="M14.5615 6.34798L13.9995 6.14498L13.5135 6.49248L13.5335 5.89548L13.0525 5.54098L13.6265 5.37498L13.815 4.80798L14.1505 5.30248L14.748 5.30698L14.381 5.77848L14.5615 6.34798Z" fill="#EF4452"/>
<path d="M6.61889 12.0716C6.72667 11.9638 6.69739 11.7598 6.55348 11.6159C6.40957 11.4719 6.20553 11.4427 6.09775 11.5504C5.98996 11.6582 6.01925 11.8623 6.16316 12.0062C6.30706 12.1501 6.5111 12.1794 6.61889 12.0716Z" fill="#FFB582"/>
<path d="M9.71861 6.97321C9.79607 6.9685 9.85383 6.88201 9.84762 6.78002C9.84142 6.67804 9.7736 6.59918 9.69615 6.6039C9.6187 6.60861 9.56094 6.6951 9.56714 6.79709C9.57334 6.89907 9.64116 6.97792 9.71861 6.97321Z" fill="#17202C"/>
<path d="M10.2499 6.90461C10.3273 6.8999 10.3851 6.8134 10.3789 6.71142C10.3727 6.60944 10.3049 6.53058 10.2274 6.53529C10.1499 6.54 10.0922 6.6265 10.0984 6.72848C10.1046 6.83047 10.1724 6.90932 10.2499 6.90461Z" fill="#17202C"/>
<path d="M8.11865 13.2738L9.35187 13.5346L8.38547 18.1035C8.31345 18.444 7.97861 18.6619 7.63814 18.5899C7.29767 18.5179 7.07975 18.1831 7.15176 17.8426L8.11865 13.2738Z" fill="#FFB582"/>
<path d="M9.86304 11.9624L11.1089 12.1539L10.5217 15.974C10.4688 16.318 10.1467 16.5543 9.80271 16.5014C9.45875 16.4485 9.22245 16.1264 9.27533 15.7824L9.86304 11.9624Z" fill="#FFB582"/>
<path d="M8.64302 11.2965L7.25952 13.6075L11.551 14.9045L11.532 11.986L8.64302 11.2965Z" fill="#076565"/>
<path d="M7.37207 16.8034L8.60529 17.0643L8.38552 18.1033C8.3135 18.4438 7.97866 18.6617 7.63819 18.5897C7.29772 18.5177 7.0798 18.1828 7.15181 17.8424L7.37207 16.8034Z" fill="#F56570"/>
</g>
<defs>
<clipPath id="clip0_16148_9053">
<rect width="20" height="20" fill="white"/>
</clipPath>
</defs>
</svg>
