<svg width="40" height="40" viewBox="0 0 40 40" fill="none" xmlns="http://www.w3.org/2000/svg">
<path d="M29.623 29.1111H25.946L21.43 30.6121C20.529 30.9111 19.557 30.9181 18.652 30.6321L13.851 29.1121H9.30799C9.22299 29.1121 9.14299 29.1321 9.05899 29.1371C7.08299 29.2681 5.51599 30.8951 5.51599 32.9041C5.51599 35.9081 7.95099 38.3431 10.955 38.3431H29.044C32.048 38.3431 34.483 35.9081 34.483 32.9041C34.483 30.8771 32.888 29.2351 30.887 29.1311C30.821 29.1281 30.758 29.1111 30.691 29.1111H29.624H29.623Z" fill="#505967"/>
<path d="M13.852 29.1111L18.653 30.6311C19.558 30.9181 20.53 30.9111 21.431 30.6111L25.947 29.1101H27.177L26.964 16.8961C26.692 16.6471 26.407 16.4131 26.113 16.1931C26.104 16.1871 26.096 16.1801 26.087 16.1731C25.808 15.9661 25.518 15.7751 25.22 15.5961C25.192 15.5791 25.166 15.5621 25.138 15.5451C24.855 15.3781 24.562 15.2281 24.264 15.0891C24.224 15.0701 24.186 15.0491 24.145 15.0311C23.816 14.8831 23.479 14.7501 23.134 14.6381C23.131 14.6381 23.129 14.6361 23.126 14.6351C23.019 14.6031 22.91 14.5721 22.801 14.5421C22.697 14.5121 22.591 14.4861 22.485 14.4591C22.3 14.4131 22.106 14.3801 21.915 14.3421C21.901 14.3471 21.888 14.3531 21.874 14.3571V15.0201C21.874 16.0781 21.016 16.9361 19.958 16.9361C18.9 16.9361 18.042 16.0781 18.042 15.0201V14.3401C17.849 14.3781 17.653 14.4111 17.466 14.4581C17.36 14.4851 17.254 14.5111 17.15 14.5411C17.15 14.5411 17.149 14.5411 17.148 14.5411C17.039 14.5711 16.931 14.6021 16.824 14.6341C16.824 14.6341 16.823 14.6341 16.822 14.6341C16.819 14.6341 16.816 14.6371 16.813 14.6381C16.469 14.7511 16.132 14.8831 15.804 15.0311C15.763 15.0491 15.724 15.0711 15.684 15.0901C15.386 15.2291 15.094 15.3791 14.811 15.5451C14.783 15.5621 14.756 15.5801 14.727 15.5961C14.43 15.7741 14.141 15.9651 13.863 16.1711C13.853 16.1781 13.843 16.1861 13.833 16.1931C13.54 16.4121 13.257 16.6451 12.985 16.8931C12.985 16.8931 12.984 16.8931 12.983 16.8941L12.77 29.1081H13.852V29.1111Z" fill="#B6B6B6"/>
<path d="M33.52 29.1099C33.49 29.1099 33.46 29.1099 33.43 29.0999V29.1099H27.18L26.96 16.8999C29.1 18.8399 30.51 21.6699 30.67 24.8699L30.75 26.4699H31.16C31.24 25.5399 31.62 24.9599 32.27 24.1799L32.95 23.3699C33.14 23.1199 33.5 23.0799 33.75 23.2699C33.89 23.3899 33.97 23.5499 33.97 23.7199C33.97 23.8099 33.95 23.9099 33.9 23.9899L33.43 24.8099C32.91 25.7099 33.69 26.2099 34.04 26.2099H34.13C34.62 26.2099 35.15 25.6599 34.82 24.9799C34.64 24.6099 34.47 24.2899 34.33 24.0199C34.21 23.7799 34.19 23.4599 34.4 23.2699C34.62 23.0699 35.01 23.0299 35.16 23.2599C35.86 24.3499 36.3 25.1199 36.42 26.0099C36.63 27.5699 35.48 29.1099 33.52 29.1099Z" fill="#FFCCA8"/>
<path d="M13.97 7.66992C13.9633 7.67659 13.9566 7.67992 13.95 7.67992V7.66992H13.97Z" fill="#FFCCA8"/>
<path d="M26.03 7.65988V7.68988C25.67 7.63988 25.31 7.54988 24.95 7.43988C23.28 6.92988 21.63 5.78988 19.99 4.12988C18.66 6.09988 17.35 7.23988 15.8 7.58988C15.22 7.72988 14.62 7.75988 13.97 7.66988C13.9633 7.67655 13.9567 7.67988 13.95 7.67988C13.24 8.04988 12.75 8.77988 12.75 9.63988C12.75 10.8199 13.68 11.7799 14.85 11.8399C15 12.0699 15.16 12.2899 15.34 12.5099C16.09 13.3799 17.02 13.9799 18.03 14.3299H18.04V15.0199C18.04 16.0799 18.9 16.9399 19.96 16.9399C20.48 16.9399 20.96 16.7199 21.31 16.3799C21.66 16.0299 21.87 15.5499 21.87 15.0199V14.3599C21.89 14.3499 21.9 14.3499 21.91 14.3399C21.92 14.3399 21.94 14.3299 21.95 14.3299C22.66 14.0899 23.34 13.7199 23.95 13.1999C24.42 12.7899 24.82 12.3399 25.14 11.8399C26.32 11.7999 27.27 10.8299 27.27 9.63988C27.27 8.76988 26.76 8.01988 26.03 7.65988ZM18.88 9.51988C18.58 9.51988 18.34 9.14988 18.34 8.69988C18.34 8.24988 18.58 7.88988 18.88 7.88988C19.18 7.88988 19.42 8.24988 19.42 8.69988C19.42 9.14988 19.18 9.51988 18.88 9.51988ZM21.03 9.51988C20.74 9.51988 20.49 9.14988 20.49 8.69988C20.49 8.24988 20.74 7.88988 21.03 7.88988C21.33 7.88988 21.58 8.24988 21.58 8.69988C21.58 9.14988 21.33 9.51988 21.03 9.51988Z" fill="#FFCCA8"/>
<path d="M12.98 16.8999L12.77 29.1099H6.54998V29.0999C6.51998 29.1099 6.48998 29.1099 6.45998 29.1099C4.49998 29.1099 3.34998 27.5699 3.55998 26.0099C3.67998 25.1199 4.11998 24.3499 4.81998 23.2599C4.96998 23.0299 5.35998 23.0699 5.57998 23.2699C5.78998 23.4599 5.76998 23.7799 5.64998 24.0199C5.50998 24.2899 5.33998 24.6099 5.15998 24.9799C4.82998 25.6599 5.35998 26.2099 5.84998 26.2099H5.93998C6.28998 26.2099 7.07998 25.7099 6.54998 24.8099L6.07998 23.9899C5.95998 23.7499 6.00998 23.4499 6.22998 23.2699C6.47998 23.0799 6.83998 23.1199 7.02998 23.3699L7.70998 24.1799C8.35998 24.9599 8.73998 25.5399 8.81998 26.4699H9.18998L9.27998 24.8699C9.43998 21.6699 10.85 18.8499 12.98 16.8999Z" fill="#FFCCA8"/>
<path d="M18.879 9.51892C19.178 9.51892 19.421 9.15392 19.421 8.70392C19.421 8.25392 19.179 7.88892 18.879 7.88892C18.579 7.88892 18.337 8.25392 18.337 8.70392C18.337 9.15392 18.579 9.51892 18.879 9.51892Z" fill="black"/>
<path d="M21.035 9.51892C21.334 9.51892 21.577 9.15392 21.577 8.70392C21.577 8.25392 21.335 7.88892 21.035 7.88892C20.735 7.88892 20.493 8.25392 20.493 8.70392C20.493 9.15392 20.735 9.51892 21.035 9.51892Z" fill="black"/>
<path d="M15.798 7.59412C17.347 7.23812 18.66 6.10212 19.991 4.13212C21.63 5.79212 23.281 6.93412 24.946 7.43912C25.309 7.54912 25.672 7.63912 26.036 7.68612C26.035 7.67812 26.031 7.67011 26.03 7.66212C26.028 7.65111 26.024 7.64112 26.022 7.63012C25.969 7.28012 25.889 6.93912 25.78 6.61312C25.776 6.60212 25.771 6.59111 25.768 6.57911C25.059 4.50811 23.272 2.95912 21.121 2.55112C21.112 2.54912 21.103 2.54712 21.094 2.54512C20.756 2.48212 20.408 2.45312 20.054 2.44912C20.033 2.44912 20.012 2.44312 19.991 2.44312C19.981 2.44312 19.971 2.44612 19.96 2.44612C19.614 2.44812 19.275 2.48112 18.944 2.54012C18.911 2.54612 18.879 2.55012 18.846 2.55612C18.511 2.62012 18.185 2.71312 17.871 2.83012C17.849 2.83812 17.827 2.84612 17.805 2.85412C17.482 2.97912 17.17 3.12912 16.875 3.30512C16.868 3.30912 16.861 3.31412 16.854 3.31812C15.951 3.86212 15.197 4.63412 14.674 5.55912C14.661 5.58212 14.648 5.60511 14.635 5.62811C14.477 5.91511 14.344 6.21712 14.234 6.53112C14.218 6.57512 14.204 6.62012 14.19 6.66512C14.09 6.97012 14.014 7.28512 13.963 7.61012C13.96 7.63211 13.951 7.65111 13.948 7.67311C13.95 7.67311 13.953 7.67311 13.955 7.67311C13.96 7.67311 13.964 7.67311 13.968 7.67311C14.62 7.75611 15.224 7.72511 15.798 7.59311V7.59412Z" fill="#333333"/>
</svg>
