<svg width="20" height="20" viewBox="0 0 20 20" fill="none" xmlns="http://www.w3.org/2000/svg">
<g clip-path="url(#clip0_16148_8999)">
<path d="M9.89062 18.75C14.7231 18.75 18.6406 14.8325 18.6406 10C18.6406 5.16751 14.7231 1.25 9.89062 1.25C5.05813 1.25 1.14062 5.16751 1.14062 10C1.14062 14.8325 5.05813 18.75 9.89062 18.75Z" fill="#FFC84D"/>
<path d="M6.05659 9.21197C5.93909 9.28347 5.78809 9.18947 5.80359 9.05247C5.89009 8.29247 6.48359 7.67547 7.25309 7.60797C8.02259 7.54047 8.71409 8.04547 8.93109 8.77847C8.97009 8.91047 8.83809 9.02947 8.70959 8.97947C8.42959 8.87047 7.95759 8.74347 7.35659 8.79597C6.75559 8.84847 6.31259 9.05547 6.05609 9.21147L6.05659 9.21197Z" fill="black"/>
<path d="M13.724 9.21197C13.8415 9.28347 13.9925 9.18947 13.977 9.05247C13.8905 8.29247 13.297 7.67547 12.5275 7.60797C11.758 7.54047 11.0665 8.04547 10.8495 8.77847C10.8105 8.91047 10.9425 9.02947 11.071 8.97947C11.351 8.87047 11.823 8.74347 12.424 8.79597C13.025 8.84847 13.468 9.05547 13.7245 9.21147L13.724 9.21197Z" fill="black"/>
<path d="M16.0921 17.8411C15.9751 17.9186 15.8241 17.9186 15.7066 17.8411C15.3351 17.5956 14.5251 17.0091 14.1766 16.3526C13.7166 15.4866 14.2566 14.6226 14.9706 14.6226C15.3776 14.6226 15.6221 14.8351 15.7576 15.0181C15.8291 15.1146 15.9701 15.1146 16.0411 15.0181C16.1766 14.8351 16.4211 14.6226 16.8281 14.6226C17.5416 14.6226 18.0816 15.4866 17.6221 16.3526C17.2736 17.0091 16.4636 17.5956 16.0921 17.8411Z" fill="#F5172B"/>
<path d="M16.6851 7.102C16.5116 7.2165 16.2876 7.2165 16.1146 7.102C15.5641 6.7385 14.3641 5.869 13.8476 4.8965C13.1661 3.6135 13.9666 2.3335 15.0236 2.3335C15.6266 2.3335 15.9891 2.6485 16.1896 2.919C16.2951 3.0615 16.5041 3.0615 16.6096 2.919C16.8101 2.648 17.1726 2.3335 17.7756 2.3335C18.8326 2.3335 19.6331 3.6135 18.9516 4.8965C18.4351 5.869 17.2356 6.738 16.6851 7.102Z" fill="#F5172B"/>
<path d="M3.11357 15.5166C2.98357 15.6026 2.81557 15.6026 2.68557 15.5166C2.27257 15.2436 1.37257 14.5921 0.985565 13.8626C0.474565 12.9001 1.07457 11.9406 1.86757 11.9406C2.31957 11.9406 2.59157 12.1766 2.74207 12.3796C2.82157 12.4866 2.97807 12.4866 3.05707 12.3796C3.20757 12.1766 3.47957 11.9406 3.93157 11.9406C4.72457 11.9406 5.32457 12.9006 4.81357 13.8626C4.42607 14.5921 3.52657 15.2436 3.11357 15.5166Z" fill="#F5172B"/>
<path d="M9.89069 12.248C8.40119 12.248 7.29719 11.9815 6.63769 11.76C6.33719 11.659 6.10419 12.032 6.32769 12.2565C6.98519 12.917 8.36869 13.486 9.89069 13.486C11.4127 13.486 12.7962 12.917 13.4537 12.2565C13.6777 12.0315 13.4447 11.659 13.1437 11.76C12.4837 11.9815 11.3802 12.248 9.89069 12.248Z" fill="#FF6D00"/>
</g>
<defs>
<clipPath id="clip0_16148_8999">
<rect width="20" height="20" fill="white"/>
</clipPath>
</defs>
</svg>
