<svg width="28" height="28" viewBox="0 0 28 28" fill="none" xmlns="http://www.w3.org/2000/svg">
<path d="M15.3423 5.44499C14.8151 6.48259 15.1391 7.75059 16.0983 8.40899L17.8383 9.60259C18.7991 10.2618 19.0855 11.5522 18.4927 12.5554L16.8383 15.1554C16.1383 16.341 16.4295 17.8618 17.5167 18.7058C18.7567 19.6674 20.5487 19.3906 21.4415 18.1002L25.1311 11.5202C26.5863 9.25939 25.2671 5.93459 23.1519 5.44819L17.9351 4.23619C16.8951 3.99459 15.8247 4.49379 15.3415 5.44579L15.3423 5.44499Z" fill="#4E5968"/>
<path d="M15.9375 4.19861C15.1815 4.48341 14.3343 4.13701 13.9943 3.40501L13.7095 2.79221C13.3207 1.95461 13.7255 0.963414 14.5895 0.637814C15.4439 0.315414 16.3935 0.779414 16.6655 1.65141L16.8663 2.29701C17.1095 3.07701 16.7023 3.91061 15.9375 4.19861Z" fill="#4E5968"/>
<path d="M19.0903 3.8978C18.4591 3.825 17.9847 3.2858 17.9943 2.6506L18.0031 2.0882C18.0143 1.357 18.6543 0.794603 19.3807 0.877803L19.4799 0.889003C20.1967 0.971403 20.6919 1.6474 20.5527 2.3562L20.4447 2.9066C20.3207 3.5394 19.7311 3.9706 19.0903 3.8978Z" fill="#4E5968"/>
<path d="M21.9031 4.43954C21.3247 4.29474 20.9511 3.73554 21.0375 3.14594L21.1143 2.62434C21.2143 1.94594 21.8783 1.50194 22.5431 1.66834L22.6343 1.69154C23.2903 1.85634 23.6671 2.54514 23.4511 3.18674L23.2831 3.68514C23.0903 4.25794 22.4895 4.58674 21.9031 4.43954Z" fill="#4E5968"/>
<path d="M24.2864 5.32727C23.808 5.07847 23.596 4.50807 23.796 4.00807L23.9728 3.56567C24.2032 2.98967 24.8792 2.73847 25.4296 3.02407L25.5048 3.06327C26.048 3.34567 26.2344 4.03047 25.9104 4.54887L25.6584 4.95207C25.3688 5.41527 24.7712 5.57847 24.2864 5.32647V5.32727Z" fill="#4E5968"/>
<path d="M25.9879 7.04194C25.6503 6.70994 25.6191 6.17634 25.9159 5.80834L26.1783 5.48194C26.5199 5.05794 27.1527 5.02114 27.5407 5.40274L27.5935 5.45474C27.9767 5.83154 27.9575 6.45474 27.5511 6.80674L27.2359 7.08034C26.8735 7.39474 26.3295 7.37794 25.9871 7.04114L25.9879 7.04194Z" fill="#4E5968"/>
<path d="M12.9551 13.7194C13.4823 14.757 13.1583 16.025 12.1991 16.6834L10.4591 17.877C9.49835 18.5362 9.21195 19.8266 9.80475 20.8298L11.4591 23.4298C12.1591 24.6154 11.8679 26.1362 10.7807 26.9802C9.54075 27.9418 7.74875 27.665 6.85595 26.3746L3.16635 19.7946C1.71115 17.5338 3.03035 14.209 5.14555 13.7226L10.3623 12.5106C11.4023 12.269 12.4727 12.7682 12.9559 13.7202L12.9551 13.7194Z" fill="#4E5968"/>
<path d="M12.3592 12.4721C13.1152 12.7569 13.9624 12.4105 14.3024 11.6785L14.5872 11.0657C14.976 10.2281 14.5712 9.23685 13.7072 8.91125C12.8528 8.58885 11.9032 9.05285 11.6312 9.92485L11.4304 10.5705C11.1872 11.3505 11.5944 12.1841 12.3592 12.4721Z" fill="#4E5968"/>
<path d="M9.20634 12.1712C9.83754 12.0984 10.3119 11.5592 10.3023 10.924L10.2935 10.3616C10.2823 9.63044 9.64234 9.06804 8.91594 9.15124L8.81674 9.16244C8.09994 9.24484 7.60474 9.92084 7.74394 10.6296L7.85194 11.18C7.97594 11.8128 8.56554 12.244 9.20634 12.1712Z" fill="#4E5968"/>
<path d="M6.39423 12.713C6.97263 12.5682 7.34623 12.009 7.25983 11.4194L7.18303 10.8978C7.08303 10.2194 6.41903 9.77538 5.75423 9.94178L5.66303 9.96498C5.00703 10.1298 4.63023 10.8186 4.84623 11.4602L5.01423 11.9586C5.20703 12.5314 5.80863 12.8602 6.39503 12.713H6.39423Z" fill="#4E5968"/>
<path d="M4.01036 13.6007C4.48876 13.3519 4.70076 12.7815 4.50076 12.2815L4.32396 11.8391C4.09356 11.2631 3.41756 11.0119 2.86716 11.2975L2.79196 11.3367C2.24876 11.6191 2.06236 12.3039 2.38636 12.8223L2.63836 13.2255C2.92796 13.6887 3.52556 13.8527 4.01036 13.6007Z" fill="#4E5968"/>
<path d="M2.30868 15.3154C2.64628 14.9834 2.67748 14.4498 2.38068 14.0818L2.11828 13.7554C1.77668 13.3314 1.14388 13.2946 0.755885 13.6762L0.703085 13.7282C0.319885 14.105 0.339085 14.7282 0.745485 15.0802L1.06068 15.3538C1.42308 15.6682 1.96708 15.6514 2.30948 15.3146L2.30868 15.3154Z" fill="#4E5968"/>
</svg>
