<svg width="36" height="36" viewBox="0 0 36 36" fill="none" xmlns="http://www.w3.org/2000/svg">
<path d="M0 10.8006C0 13.5674 1.04032 16.0912 2.75113 18.0021C1.04032 19.9131 0 22.4368 0 25.2036C0 31.1686 4.8356 36.0042 10.8006 36.0042C13.5665 36.0042 16.0895 34.9646 18.0002 33.2548C19.9109 34.9646 22.434 36.0042 25.1998 36.0042C31.1648 36.0042 36.0004 31.1686 36.0004 25.2036C36.0004 22.4368 34.9601 19.9131 33.2493 18.0021C34.9601 16.0912 36.0004 13.5674 36.0004 10.8006C36.0004 4.8356 31.1648 0 25.1998 0C22.434 0 19.9109 1.03963 18.0002 2.74943C16.0895 1.03963 13.5665 0 10.8006 0C4.8356 0 0 4.8356 0 10.8006Z" fill="#75CCFF"/>
</svg>
