<svg width="24" height="24" viewBox="0 0 24 24" fill="none" xmlns="http://www.w3.org/2000/svg">
<path d="M0 7.19957C0 9.04386 0.693539 10.7262 1.83407 12C0.693539 13.2738 0 14.9561 0 16.8004C0 20.7766 3.2237 24 7.20033 24C9.0442 24 10.7262 23.307 12 22.1673C13.2738 23.307 14.9558 24 16.7997 24C20.7763 24 24 20.7766 24 16.8004C24 14.9561 23.3065 13.2738 22.1659 12C23.3065 10.7262 24 9.04386 24 7.19957C24 3.22336 20.7763 0 16.7997 0C14.9558 0 13.2738 0.693006 12 1.83274C10.7262 0.693006 9.0442 0 7.20033 0C3.2237 0 0 3.22336 0 7.19957Z" fill="black"/>
</svg>
