<svg width="200" height="200" viewBox="0 0 200 200" fill="none" xmlns="http://www.w3.org/2000/svg">
<path opacity="0.36" d="M0 59.9998C0 75.367 5.77718 89.3849 15.2781 100C5.77718 110.615 0 124.633 0 140C0 173.137 26.8628 200 59.9997 200C75.3669 200 89.3848 194.223 99.9999 184.722C110.615 194.223 124.633 200 140 200C173.137 200 200 173.137 200 140C200 124.633 194.223 110.615 184.722 100C194.223 89.385 200 75.367 200 59.9998C200 26.8628 173.137 0 140 0C124.633 0 110.615 5.77721 100 15.2782C89.3849 5.77721 75.367 0 59.9997 0C26.8628 0 0 26.8628 0 59.9998Z" fill="#00BF7F"/>
</svg>
