<svg width="149" height="149" viewBox="0 0 149 149" fill="none" xmlns="http://www.w3.org/2000/svg">
<path d="M0 44.6973C0 56.1473 4.30572 66.5917 11.3865 74.5C4.30572 82.4083 0 92.8527 0 104.303C0 128.988 20.0138 149 44.7021 149C56.1494 149 66.5918 144.698 74.5 137.622C82.4082 144.698 92.8506 149 104.298 149C128.986 149 149 128.988 149 104.303C149 92.8527 144.694 82.4083 137.614 74.5C144.694 66.5917 149 56.1473 149 44.6973C149 20.0117 128.986 0 104.298 0C92.8506 0 82.4082 4.30241 74.5 11.3783C66.5918 4.30241 56.1494 0 44.7021 0C20.0138 0 0 20.0117 0 44.6973Z" fill="url(#paint0_linear_16187_17146)"/>
<defs>
<linearGradient id="paint0_linear_16187_17146" x1="74.5" y1="149" x2="74.5" y2="8.88404e-07" gradientUnits="userSpaceOnUse">
<stop stop-color="white" stop-opacity="0.2"/>
<stop offset="1" stop-color="white" stop-opacity="0.4"/>
</linearGradient>
</defs>
</svg>
