<svg width="100" height="100" viewBox="0 0 100 100" fill="none" xmlns="http://www.w3.org/2000/svg">
<path opacity="0.5" fill-rule="evenodd" clip-rule="evenodd" d="M100 70.0007C100 62.3169 97.1112 55.3078 92.3605 50.0002C97.1111 44.6926 99.9997 37.6836 99.9997 29.9999C99.9997 13.4314 86.5683 2.93433e-05 69.9999 2.78949e-05C62.3163 2.72232e-05 55.3074 2.88859 49.9999 7.63903C44.6923 2.88859 37.6834 2.50697e-05 29.9999 2.4398e-05C13.4314 2.29495e-05 7.56812e-06 13.4314 6.11966e-06 29.9999C5.44793e-06 37.6836 2.88868 44.6926 7.63929 50.0002C2.88868 55.3078 3.29442e-06 62.3168 2.62269e-06 70.0006C1.17423e-06 86.569 13.4314 100 29.9998 100C37.6834 100 44.6923 97.1119 49.9999 92.3614C55.3075 97.112 62.3164 100.001 70.0001 100.001C86.5686 100.001 100 86.5692 100 70.0007Z" fill="url(#paint0_linear_16187_14228)"/>
<defs>
<linearGradient id="paint0_linear_16187_14228" x1="50" y1="100.001" x2="50" y2="2.61464e-05" gradientUnits="userSpaceOnUse">
<stop stop-color="#00BF7F" stop-opacity="0"/>
<stop offset="1" stop-color="#00BF7F"/>
</linearGradient>
</defs>
</svg>
