<svg width="38" height="38" viewBox="0 0 38 38" fill="none" xmlns="http://www.w3.org/2000/svg">
<path d="M6.84679 6.86499C6.69633 4.50856 8.2941 2.57177 9.97963 1.704C13.2949 0.00573522 16.9323 1.60072 19.0001 4.25816C21.0679 1.59979 24.7031 0.00300515 28.0145 1.69998C29.6941 2.55587 31.2206 4.4437 31.1347 6.84686C33.4911 6.6964 35.4279 8.29419 36.2957 9.97975C37.9938 13.295 36.399 16.9323 33.7418 19.0002C36.4002 21.068 37.997 24.7032 36.3 28.0147C35.4441 29.6944 33.5563 31.2209 31.1532 31.135C31.3037 33.4914 29.7059 35.4282 28.0204 36.296C24.705 37.9943 21.0676 36.3992 18.9998 33.7417C16.932 36.4002 13.2968 37.997 9.98529 36.3C8.30569 35.4441 6.77919 33.5563 6.86506 31.1531C4.50867 31.3036 2.5719 29.7058 1.70414 28.0203C0.00592977 24.705 1.60081 21.0676 4.25813 18.9998C1.59979 16.9319 0.0030151 13.2967 1.69997 9.98525C2.55585 8.30563 4.44365 6.77911 6.84679 6.86499Z" fill="white" stroke="white" stroke-opacity="0.05"/>
</svg>
