<svg width="24" height="25" viewBox="0 0 24 25" fill="none" xmlns="http://www.w3.org/2000/svg">
<path opacity="0.08" d="M6.29977 8.41408C6.03689 9.39518 6.16592 10.389 6.5909 11.2292C5.80274 11.7444 5.1941 12.5405 4.93122 13.5216C4.36435 15.6372 5.61983 17.8117 7.7354 18.3786C8.71649 18.6415 9.71027 18.5124 10.5505 18.0874C11.0657 18.8756 11.8618 19.4842 12.8429 19.7471C14.9585 20.314 17.133 19.0585 17.6999 16.9429C17.9628 15.9618 17.8337 14.9681 17.4088 14.1278C18.1969 13.6127 18.8056 12.8165 19.0684 11.8354C19.6353 9.71987 18.3798 7.54532 16.2643 6.97845C15.2832 6.71557 14.2894 6.8446 13.4491 7.26959C12.934 6.48142 12.1379 5.87278 11.1568 5.6099C9.04118 5.04303 6.86664 6.29851 6.29977 8.41408Z" fill="#00BF7F"/>
<path opacity="0.08" d="M2.60538 11.5579C2.95477 12.8619 3.7637 13.92 4.81123 14.6047C4.24639 15.7215 4.0749 17.0423 4.42429 18.3462C5.1777 21.158 8.06784 22.8266 10.8796 22.0732C12.1836 21.7238 13.2417 20.9149 13.9264 19.8673C15.0431 20.4322 16.3639 20.6037 17.6679 20.2543C20.4796 19.5009 22.1482 16.6107 21.3948 13.799C21.0454 12.495 20.2365 11.4369 19.189 10.7522C19.7538 9.63547 19.9253 8.31465 19.5759 7.0107C18.8225 4.19893 15.9324 2.53031 13.1206 3.28372C11.8167 3.63311 10.7586 4.44204 10.0739 5.48957C8.95712 4.92473 7.63631 4.75324 6.33236 5.10263C3.52059 5.85604 1.85197 8.74618 2.60538 11.5579Z" fill="#00BF7F"/>
<path opacity="0.08" d="M2.63537 14.0277C3.31035 15.1968 4.36557 16.0095 5.55462 16.3998C5.29806 17.6246 5.47426 18.9448 6.14924 20.1139C7.60471 22.6349 10.8282 23.4986 13.3492 22.0432C14.5183 21.3682 15.331 20.313 15.7212 19.1239C16.9461 19.3805 18.2663 19.2043 19.4354 18.5293C21.9563 17.0738 22.8201 13.8503 21.3646 11.3293C20.6896 10.1602 19.6344 9.34755 18.4454 8.95729C18.7019 7.73241 18.5257 6.41222 17.8508 5.24312C16.3953 2.72217 13.1718 1.85842 10.6508 3.3139C9.4817 3.98887 8.66902 5.04409 8.27876 6.23315C7.05388 5.97659 5.73369 6.15279 4.5646 6.82776C2.04364 8.28324 1.1799 11.5068 2.63537 14.0277Z" fill="#00BF7F"/>
<path d="M7.37207 10.8275C7.37207 11.5386 7.63941 12.1873 8.07906 12.6785C7.63941 13.1697 7.37207 13.8184 7.37207 14.5295C7.37207 16.0629 8.61514 17.3059 10.1485 17.3059C10.8596 17.3059 11.5083 17.0386 11.9995 16.599C12.4907 17.0386 13.1394 17.3059 13.8505 17.3059C15.3839 17.3059 16.627 16.0629 16.627 14.5295C16.627 13.8184 16.3596 13.1697 15.92 12.6785C16.3597 12.1873 16.627 11.5386 16.627 10.8275C16.627 9.29409 15.3839 8.05103 13.8505 8.05103C13.1394 8.05103 12.4907 8.31836 11.9995 8.75802C11.5083 8.31836 10.8596 8.05103 10.1485 8.05103C8.61514 8.05103 7.37207 9.29409 7.37207 10.8275Z" fill="#00BF7F"/>
</svg>
