<svg width="28" height="28" viewBox="0 0 28 28" fill="none" xmlns="http://www.w3.org/2000/svg">
<path d="M16.5765 2.8704C16.7594 6.67587 18.3965 8.30964 19.9761 9.88586C21.6315 11.5383 23.2302 13.1322 23.3289 16.7719C23.3783 18.5853 22.9951 20.3876 22.1674 21.9618C21.3918 23.4356 20.2312 24.7066 18.6718 25.597C18.4129 25.744 18.0855 25.651 17.941 25.3877C17.9127 25.3365 17.8935 25.2816 17.8825 25.2276C17.5148 23.3575 16.5984 22.1385 15.5357 21.5627C15.0244 21.2854 14.4775 21.1579 13.9443 21.1803C13.4193 21.2026 12.9044 21.3719 12.4489 21.6883C11.5773 22.294 10.9179 23.4449 10.7825 25.1458C10.7597 25.4463 10.5008 25.6706 10.2054 25.6473C10.1213 25.6408 10.0426 25.6147 9.97406 25.5729C8.09458 24.5987 5.90401 22.8792 5.03985 19.9754C4.42158 17.8988 4.4911 15.2321 5.86024 11.8248C5.97183 11.5457 6.2837 11.4126 6.55808 11.5252C6.66418 11.5689 6.74923 11.6434 6.80777 11.7346C7.43609 12.7255 8.09368 13.3405 8.77314 13.695C9.25329 13.9452 9.75175 14.069 10.2639 14.109C9.99412 12.0231 9.70785 5.57707 15.7944 2.39387C16.0578 2.25617 16.3806 2.36131 16.5169 2.62926C16.5553 2.70556 16.5754 2.78744 16.5764 2.86838L16.5765 2.8704Z" fill="black"/>
</svg>
