<svg width="24" height="24" viewBox="0 0 24 24" fill="none" xmlns="http://www.w3.org/2000/svg">
<path d="M12.3536 1.64645C12.1583 1.45118 11.8417 1.45118 11.6464 1.64645L8.04645 5.24645C7.92657 5.36633 7.8756 5.53879 7.91106 5.70458C7.94652 5.87036 8.06357 6.00689 8.222 6.06724C9.70152 6.63087 10.3059 7.40046 10.4732 8.05905C10.6428 8.72656 10.4006 9.41732 9.90895 9.90895C9.41732 10.4006 8.72656 10.6428 8.05905 10.4732C7.40046 10.3059 6.63087 9.70152 6.06724 8.222C6.00689 8.06357 5.87036 7.94652 5.70458 7.91106C5.53879 7.8756 5.36633 7.92657 5.24645 8.04645L1.64645 11.6464C1.45118 11.8417 1.45118 12.1583 1.64645 12.3536L4.72926 15.4364C3.4932 16.058 2.79044 16.8963 2.55758 17.8128C2.28654 18.8797 2.68808 19.9202 3.38395 20.6161C4.07982 21.3119 5.12031 21.7135 6.18718 21.4424C7.10374 21.2096 7.94201 20.5068 8.56364 19.2707L11.6464 22.3536C11.8417 22.5488 12.1583 22.5488 12.3536 22.3536L15.9536 18.7536C16.0734 18.6337 16.1244 18.4612 16.0889 18.2954C16.0535 18.1296 15.9364 17.9931 15.778 17.9328C14.2985 17.3691 13.6941 16.5995 13.5268 15.9409C13.3572 15.2734 13.5994 14.5827 14.0911 14.0911C14.5827 13.5994 15.2734 13.3572 15.9409 13.5268C16.5995 13.6941 17.3691 14.2985 17.9328 15.778C17.9931 15.9364 18.1296 16.0535 18.2954 16.0889C18.4612 16.1244 18.6337 16.0734 18.7536 15.9536L22.3536 12.3536C22.5488 12.1583 22.5488 11.8417 22.3536 11.6464L19.2707 8.56364C20.5068 7.94201 21.2096 7.10374 21.4424 6.18718C21.7135 5.12031 21.3119 4.07982 20.6161 3.38395C19.9202 2.68808 18.8797 2.28654 17.8128 2.55758C16.8963 2.79044 16.058 3.4932 15.4364 4.72926L12.3536 1.64645Z" fill="#171719" stroke="#171719" stroke-linecap="round" stroke-linejoin="round"/>
</svg>
