<svg width="24" height="24" viewBox="0 0 24 24" fill="none" xmlns="http://www.w3.org/2000/svg">
<path fill-rule="evenodd" clip-rule="evenodd" d="M8.89994 6.88883C8.89994 5.26186 10.2638 3.89997 11.9999 3.89997C13.7361 3.89997 15.0999 5.26186 15.0999 6.88883V10.1001L8.89994 10.1002V6.88883ZM7.09994 10.1001V6.88883C7.09994 4.22028 9.31782 2.09998 11.9999 2.09998C14.682 2.09998 16.8999 4.22028 16.8999 6.88883V10.1C17.0765 10.1 17.2531 10.1 17.4297 10.1C17.684 10.1 17.9261 10.1 18.13 10.1167C18.3524 10.1348 18.6075 10.1772 18.8625 10.3071C19.22 10.4893 19.5107 10.7799 19.6928 11.1375C19.8228 11.3924 19.8651 11.6475 19.8833 11.8699C19.9 12.0739 19.9 12.3159 19.8999 12.5703V19.4298C19.9 19.6841 19.9 19.9261 19.8833 20.1301C19.8651 20.3525 19.8228 20.6076 19.6928 20.8626C19.5107 21.2201 19.22 21.5107 18.8625 21.6929C18.6075 21.8228 18.3524 21.8652 18.13 21.8834C17.9261 21.9 17.684 21.9 17.4297 21.9H6.57016C6.31584 21.9 6.07379 21.9 5.86983 21.8834C5.64742 21.8652 5.39231 21.8228 5.13734 21.6929C4.77983 21.5107 4.48917 21.2201 4.30701 20.8626C4.17709 20.6076 4.1347 20.3525 4.11653 20.1301C4.09987 19.9261 4.09989 19.6841 4.09992 19.4298L4.09992 12.6L4.09992 12.5703C4.09989 12.3159 4.09987 12.0739 4.11653 11.8699C4.1347 11.6475 4.17709 11.3924 4.30701 11.1375C4.48917 10.7799 4.77983 10.4893 5.13734 10.3071C5.39231 10.1772 5.64742 10.1348 5.86983 10.1167C6.07378 10.1 6.3158 10.1 6.57011 10.1C6.7467 10.1001 6.92335 10.1001 7.09994 10.1001Z" fill="#70737C" fill-opacity="0.22"/>
</svg>
