<svg width="24" height="24" viewBox="0 0 24 24" fill="none" xmlns="http://www.w3.org/2000/svg">
<path d="M11.9999 14.5C8.66425 14.5 5.7008 16.1113 3.81692 18.6045L3.79968 18.6274C3.6213 18.8634 3.45854 19.0787 3.34584 19.2799C3.21928 19.5059 3.13762 19.7435 3.14281 20.0274C3.14694 20.253 3.21662 20.4771 3.30944 20.6636C3.40226 20.8501 3.53907 21.0408 3.71655 21.18C3.95116 21.3642 4.21368 21.4371 4.48603 21.4698C4.73835 21.5 5.04639 21.5 5.39917 21.5H5.42708H18.5726H18.6005C18.9533 21.5 19.2613 21.5 19.5137 21.4698C19.786 21.4371 20.0485 21.3642 20.2832 21.18C20.4606 21.0408 20.5974 20.8501 20.6903 20.6636C20.7831 20.4771 20.8528 20.253 20.8569 20.0274C20.8621 19.7435 20.7804 19.5059 20.6539 19.2799C20.5412 19.0787 20.3784 18.8634 20.2 18.6274L20.1828 18.6045C18.2989 16.1113 15.3355 14.5 11.9999 14.5ZM11.9999 12.5C14.7613 12.5 16.9999 10.2614 16.9999 7.5C16.9999 4.73858 14.7613 2.5 11.9999 2.5C9.23843 2.5 6.99985 4.73858 6.99985 7.5C6.99985 10.2614 9.23843 12.5 11.9999 12.5Z" fill="#171719" stroke="#171719" stroke-linecap="round" stroke-linejoin="round"/>
</svg>
