<svg width="24" height="24" viewBox="0 0 24 24" fill="none" xmlns="http://www.w3.org/2000/svg">
<path d="M18.5 17.2V16H19.5C21.1569 16 22.5 14.6569 22.5 13C22.5 11.3431 21.1569 10 19.5 10H18.4995C18.4982 9.53797 18.4926 9.15211 18.4703 8.8245C18.44 8.38067 18.3772 8.00734 18.2336 7.66061C17.8784 6.80301 17.197 6.12165 16.3394 5.76642C15.9927 5.6228 15.6193 5.55999 15.1755 5.5297C14.7401 5.5 14.2017 5.5 13.5184 5.5H13.5H13V4.5C13 2.84315 11.6569 1.5 10 1.5C8.34315 1.5 7 2.84315 7 4.5V5.5H6.5H6.48157C5.79826 5.5 5.25993 5.5 4.8245 5.5297C4.38067 5.55999 4.00734 5.6228 3.66061 5.76642C2.80301 6.12165 2.12165 6.80301 1.76642 7.66061C1.6228 8.00734 1.55999 8.38067 1.5297 8.8245C1.5 9.25993 1.5 9.79826 1.5 10.4816V10.5C1.5 10.7761 1.72386 11 2 11H3.5C4.60457 11 5.5 11.8954 5.5 13C5.5 14.1046 4.60457 15 3.5 15H2C1.72386 15 1.5 15.2239 1.5 15.5V17.2L1.5 17.2222C1.5 18.0435 1.49999 18.6905 1.54253 19.2111C1.58593 19.7423 1.67609 20.1859 1.88148 20.589C2.21703 21.2475 2.75247 21.783 3.41103 22.1185C3.81413 22.3239 4.25771 22.4141 4.78889 22.4575C5.30954 22.5 5.95651 22.5 6.77778 22.5H6.8H8C8.27614 22.5 8.5 22.2761 8.5 22V20.25C8.5 19.2835 9.2835 18.5 10.25 18.5C11.2165 18.5 12 19.2835 12 20.25V22C12 22.2761 12.2239 22.5 12.5 22.5H13.2H13.2222C14.0435 22.5 14.6905 22.5 15.2111 22.4575C15.7423 22.4141 16.1859 22.3239 16.589 22.1185C17.2475 21.783 17.783 21.2475 18.1185 20.589C18.3239 20.1859 18.4141 19.7423 18.4575 19.2111C18.5 18.6905 18.5 18.0435 18.5 17.2222V17.2Z" fill="#171719" stroke="#171719" stroke-linecap="round" stroke-linejoin="round"/>
</svg>
