<svg width="24" height="24" viewBox="0 0 24 24" fill="none" xmlns="http://www.w3.org/2000/svg">
<path d="M12.3997 11.1001V11.6001H12.8997H20.7497C20.9706 11.6001 21.1497 11.7792 21.1497 12.0001C21.1497 12.221 20.9706 12.4001 20.7497 12.4001H12.8997H12.3997V12.9001V20.7501C12.3997 20.971 12.2206 21.1501 11.9997 21.1501C11.7788 21.1501 11.5997 20.971 11.5997 20.7501V12.9001V12.4001H11.0997H3.24973C3.02882 12.4001 2.84973 12.221 2.84973 12.0001C2.84973 11.7792 3.02882 11.6001 3.24973 11.6001H11.0997H11.5997V11.1001V3.2501C11.5997 3.02918 11.7788 2.8501 11.9997 2.8501C12.2206 2.8501 12.3997 3.02918 12.3997 3.2501V11.1001Z" fill="#171719" stroke="#171719"/>
</svg>
