<svg width="25" height="24" viewBox="0 0 25 24" fill="none" xmlns="http://www.w3.org/2000/svg">
<path d="M6.125 13.0001H2.125C1.525 13.0001 1.125 13.4001 1.125 14.0001V22.0001C1.125 22.6001 1.525 23.0001 2.125 23.0001H6.125C6.725 23.0001 7.125 22.6001 7.125 22.0001V14.0001C7.125 13.4001 6.725 13.0001 6.125 13.0001ZM22.125 9.00012H18.125C17.525 9.00012 17.125 9.40012 17.125 10.0001V22.0001C17.125 22.6001 17.525 23.0001 18.125 23.0001H22.125C22.725 23.0001 23.125 22.6001 23.125 22.0001V10.0001C23.125 9.40012 22.725 9.00012 22.125 9.00012ZM14.125 1.00012H10.125C9.525 1.00012 9.125 1.40012 9.125 2.00012V22.0001C9.125 22.6001 9.525 23.0001 10.125 23.0001H14.125C14.725 23.0001 15.125 22.6001 15.125 22.0001V2.00012C15.125 1.40012 14.725 1.00012 14.125 1.00012Z" fill="#000000"/>
</svg>
