<svg width="81" height="80" viewBox="0 0 81 80" fill="none" xmlns="http://www.w3.org/2000/svg">
<g clip-path="url(#clip0_15717_2201)">
<path d="M40.4999 72.9999C55.2835 72.9999 67.2679 61.0154 67.2679 46.2319C67.2679 31.4483 55.2835 19.4639 40.4999 19.4639C25.7164 19.4639 13.7319 31.4483 13.7319 46.2319C13.7319 61.0154 25.7164 72.9999 40.4999 72.9999Z" fill="#FFCCA8"/>
<path d="M16.07 57.0316C21.9883 57.0316 26.786 52.5321 26.786 46.9816C26.786 41.4312 21.9883 36.9316 16.07 36.9316C10.1517 36.9316 5.354 41.4312 5.354 46.9816C5.354 52.5321 10.1517 57.0316 16.07 57.0316Z" fill="#FFCCA8"/>
<path d="M64.9299 57.0316C70.8482 57.0316 75.6459 52.5321 75.6459 46.9816C75.6459 41.4312 70.8482 36.9316 64.9299 36.9316C59.0116 36.9316 54.2139 41.4312 54.2139 46.9816C54.2139 52.5321 59.0116 57.0316 64.9299 57.0316Z" fill="#FFCCA8"/>
<path d="M70.772 38.556C71.042 20.178 55.23 5.17196 36.506 7.18196C22.104 8.72796 10.572 20.434 9.21405 34.854C9.07605 36.322 9.04005 37.77 9.10205 39.194C9.10205 39.194 11.718 38.57 14.046 43.624L31.704 23.866C31.704 23.866 53.14 41.082 67.288 40.142C67.6 40.122 67.96 40.014 68.314 39.862C69.258 39.33 70.048 38.346 70.772 38.556Z" fill="#333333"/>
<path d="M32.9798 48.3536C34.5527 48.3536 35.8278 46.8233 35.8278 44.9356C35.8278 43.0479 34.5527 41.5176 32.9798 41.5176C31.4069 41.5176 30.1318 43.0479 30.1318 44.9356C30.1318 46.8233 31.4069 48.3536 32.9798 48.3536Z" fill="black"/>
<path d="M48.0199 48.3536C49.5928 48.3536 50.8679 46.8233 50.8679 44.9356C50.8679 43.0479 49.5928 41.5176 48.0199 41.5176C46.447 41.5176 45.1719 43.0479 45.1719 44.9356C45.1719 46.8233 46.447 48.3536 48.0199 48.3536Z" fill="black"/>
<path d="M44.044 58.4141C44.684 58.4141 45.14 59.0301 44.97 59.6461C44.43 61.6081 42.634 63.0481 40.502 63.0481C38.37 63.0481 36.572 61.6081 36.034 59.6461C35.864 59.0281 36.318 58.4141 36.96 58.4141H44.048H44.044Z" fill="#5C2F17"/>
</g>
<defs>
<clipPath id="clip0_15717_2201">
<rect width="80" height="80" fill="white" transform="translate(0.5)"/>
</clipPath>
</defs>
</svg>
