<svg width="24" height="25" viewBox="0 0 24 25" fill="none" xmlns="http://www.w3.org/2000/svg">
<path d="M5 5.48951C5 4.51835 5 4.03277 5.20249 3.7651C5.37889 3.53191 5.64852 3.38761 5.9404 3.37018C6.27544 3.35017 6.67946 3.61953 7.48752 4.15823L18.0031 11.1686C18.6708 11.6137 19.0046 11.8363 19.1209 12.1168C19.2227 12.3621 19.2227 12.6377 19.1209 12.883C19.0046 13.1635 18.6708 13.386 18.0031 13.8312L7.48752 20.8415C6.67946 21.3802 6.27544 21.6496 5.9404 21.6296C5.64852 21.6122 5.37889 21.4679 5.20249 21.2347C5 20.967 5 20.4814 5 19.5103V5.48951Z" fill="black"/>
</svg>
