<svg width="80" height="80" viewBox="0 0 80 80" fill="none" xmlns="http://www.w3.org/2000/svg">
<g clip-path="url(#clip0_15717_2213)">
<path d="M7.74395 65.5981C7.74395 65.5981 3.87995 23.1361 24.4159 14.1361C24.4159 14.1361 30.062 5.95412 42.66 7.26412C55.2599 8.57412 64.8819 18.2781 68.1039 27.0641C70.5039 33.6081 72.8799 47.4641 72.5039 63.5201C72.4599 65.3841 71.4579 67.0921 69.8659 68.0601C66.3899 70.1721 58.3339 72.8801 39.8779 72.8801C9.60595 72.8801 7.74395 65.5981 7.74395 65.5981Z" fill="#333333"/>
<path d="M49.4241 34.8259C38.3081 33.1739 31.0781 25.8119 28.7641 23.1179C28.4501 22.7519 27.8561 22.9119 27.7681 23.3879C27.2281 26.3339 25.3141 33.8279 19.2201 39.2619C19.2201 39.2619 18.1981 40.0439 17.0521 41.5799C15.3701 43.8379 14.7081 46.7139 15.1841 49.4879C17.2661 61.6159 27.4041 70.8219 39.6021 70.8219C51.0681 70.8219 60.7141 62.6899 63.5621 51.6419C64.9781 43.4359 60.0081 36.3999 49.4241 34.8259Z" fill="#FFCCA8"/>
<path d="M32.1258 47.2725C33.6512 47.2725 34.8878 45.7888 34.8878 43.9585C34.8878 42.1283 33.6512 40.6445 32.1258 40.6445C30.6004 40.6445 29.3638 42.1283 29.3638 43.9585C29.3638 45.7888 30.6004 47.2725 32.1258 47.2725Z" fill="black"/>
<path d="M46.7039 47.2725C48.2293 47.2725 49.4659 45.7888 49.4659 43.9585C49.4659 42.1283 48.2293 40.6445 46.7039 40.6445C45.1785 40.6445 43.9419 42.1283 43.9419 43.9585C43.9419 45.7888 45.1785 47.2725 46.7039 47.2725Z" fill="black"/>
<path d="M42.8519 58.5166C43.4719 58.5166 43.9099 59.1106 43.7459 59.7086C43.2239 61.6106 41.4819 63.0086 39.4139 63.0086C37.3459 63.0086 35.6039 61.6106 35.0819 59.7086C34.9179 59.1126 35.3579 58.5166 35.9759 58.5166H42.8519Z" fill="#5C2F17"/>
</g>
<defs>
<clipPath id="clip0_15717_2213">
<rect width="80" height="80" fill="white"/>
</clipPath>
</defs>
</svg>
